<mxfile host="app.diagrams.net" modified="2024-03-30T06:52:24.713Z" agent="Mozilla/5.0 (Windows NT 10.0; Win64; x64) AppleWebKit/537.36 (KHTML, like Gecko) Chrome/123.0.0.0 Safari/537.36" etag="GMzW1WBgnPROPxsuYUOJ" version="24.2.1" type="device">
  <diagram name="Página-1" id="NEF0DFNY7gWPzBWjJjwQ">
    <mxGraphModel dx="989" dy="1683" grid="1" gridSize="10" guides="1" tooltips="1" connect="1" arrows="1" fold="1" page="1" pageScale="1" pageWidth="827" pageHeight="1169" math="0" shadow="0">
      <root>
        <mxCell id="0" />
        <mxCell id="1" parent="0" />
        <mxCell id="m8QgqDnbLKsCeQyGqOP--293" value="" style="ellipse;shape=cloud;whiteSpace=wrap;html=1;" parent="1" vertex="1">
          <mxGeometry x="670" y="2269.63" width="270.4" height="339.25" as="geometry" />
        </mxCell>
        <mxCell id="m8QgqDnbLKsCeQyGqOP--7" value="" style="ellipse;shape=cloud;whiteSpace=wrap;html=1;" parent="1" vertex="1">
          <mxGeometry x="500" y="-30" width="350" height="250" as="geometry" />
        </mxCell>
        <mxCell id="m8QgqDnbLKsCeQyGqOP--4" value="" style="rounded=0;whiteSpace=wrap;html=1;" parent="1" vertex="1">
          <mxGeometry x="619.6" y="20" width="120" height="125" as="geometry" />
        </mxCell>
        <mxCell id="m8QgqDnbLKsCeQyGqOP--1" value="" style="image;aspect=fixed;perimeter=ellipsePerimeter;html=1;align=center;shadow=0;dashed=0;spacingTop=3;image=img/lib/active_directory/generic_server.svg;" parent="1" vertex="1">
          <mxGeometry x="690" y="60" width="39.2" height="70" as="geometry" />
        </mxCell>
        <mxCell id="m8QgqDnbLKsCeQyGqOP--2" value="" style="image;aspect=fixed;perimeter=ellipsePerimeter;html=1;align=center;shadow=0;dashed=0;spacingTop=3;image=img/lib/active_directory/laptop_client.svg;" parent="1" vertex="1">
          <mxGeometry x="150" y="40" width="73.29" height="81.43" as="geometry" />
        </mxCell>
        <mxCell id="m8QgqDnbLKsCeQyGqOP--3" value="IPPrivada&lt;div&gt;&lt;br&gt;&lt;/div&gt;" style="text;html=1;align=center;verticalAlign=middle;whiteSpace=wrap;rounded=0;" parent="1" vertex="1">
          <mxGeometry x="156.65" y="30" width="60" as="geometry" />
        </mxCell>
        <mxCell id="m8QgqDnbLKsCeQyGqOP--5" value="" style="image;sketch=0;aspect=fixed;html=1;points=[];align=center;fontSize=12;image=img/lib/mscae/Docker.svg;" parent="1" vertex="1">
          <mxGeometry x="600" y="124.5" width="50" height="41" as="geometry" />
        </mxCell>
        <mxCell id="m8QgqDnbLKsCeQyGqOP--8" value="" style="whiteSpace=wrap;html=1;shape=mxgraph.basic.cloud_rect" parent="1" vertex="1">
          <mxGeometry x="600" y="70.71" width="40" height="19.29" as="geometry" />
        </mxCell>
        <mxCell id="m8QgqDnbLKsCeQyGqOP--9" value="&lt;div style=&quot;&quot;&gt;&lt;span style=&quot;font-size: 15px;&quot;&gt;&lt;b&gt;35.196.99.208&lt;/b&gt;&lt;/span&gt;&lt;br&gt;&lt;/div&gt;" style="text;html=1;align=center;verticalAlign=middle;whiteSpace=wrap;rounded=0;" parent="1" vertex="1">
          <mxGeometry x="590" y="-50" width="170" height="40" as="geometry" />
        </mxCell>
        <mxCell id="m8QgqDnbLKsCeQyGqOP--10" value="Servidor.py" style="text;html=1;align=center;verticalAlign=middle;whiteSpace=wrap;rounded=0;" parent="1" vertex="1">
          <mxGeometry x="679.6" y="121.43" width="60" height="30" as="geometry" />
        </mxCell>
        <mxCell id="m8QgqDnbLKsCeQyGqOP--12" value="8081" style="text;html=1;align=center;verticalAlign=middle;whiteSpace=wrap;rounded=0;" parent="1" vertex="1">
          <mxGeometry x="550" y="65.71000000000001" width="60" height="30" as="geometry" />
        </mxCell>
        <mxCell id="m8QgqDnbLKsCeQyGqOP--13" value="8081" style="text;html=1;align=center;verticalAlign=middle;whiteSpace=wrap;rounded=0;" parent="1" vertex="1">
          <mxGeometry x="630" y="65.72000000000001" width="60" height="30" as="geometry" />
        </mxCell>
        <mxCell id="m8QgqDnbLKsCeQyGqOP--14" value="" style="endArrow=classic;html=1;rounded=0;" parent="1" edge="1">
          <mxGeometry width="50" height="50" relative="1" as="geometry">
            <mxPoint x="260" y="80" as="sourcePoint" />
            <mxPoint x="480" y="80" as="targetPoint" />
          </mxGeometry>
        </mxCell>
        <mxCell id="m8QgqDnbLKsCeQyGqOP--16" value="Petición a 35.196.99.208:8081&lt;div&gt;Hola desde el cliente&lt;/div&gt;" style="text;html=1;align=center;verticalAlign=middle;whiteSpace=wrap;rounded=0;" parent="1" vertex="1">
          <mxGeometry x="260" y="30" width="210" height="40" as="geometry" />
        </mxCell>
        <mxCell id="m8QgqDnbLKsCeQyGqOP--17" value="" style="endArrow=none;html=1;rounded=0;startArrow=classic;startFill=1;endFill=0;" parent="1" edge="1">
          <mxGeometry width="50" height="50" relative="1" as="geometry">
            <mxPoint x="260" y="110" as="sourcePoint" />
            <mxPoint x="480" y="110" as="targetPoint" />
          </mxGeometry>
        </mxCell>
        <mxCell id="m8QgqDnbLKsCeQyGqOP--18" value="Respuesta: Hola, te saludo desde el servidor!" style="text;html=1;align=center;verticalAlign=middle;whiteSpace=wrap;rounded=0;" parent="1" vertex="1">
          <mxGeometry x="260" y="121.43" width="210" height="20" as="geometry" />
        </mxCell>
        <mxCell id="m8QgqDnbLKsCeQyGqOP--19" value="&lt;div&gt;Cliente.py&lt;/div&gt;" style="text;html=1;align=center;verticalAlign=middle;whiteSpace=wrap;rounded=0;" parent="1" vertex="1">
          <mxGeometry x="156.65" y="116.43" width="60" height="30" as="geometry" />
        </mxCell>
        <mxCell id="m8QgqDnbLKsCeQyGqOP--20" value="Enviada la respuesta, se cierra la conexion y B deja de funcionar" style="text;html=1;align=center;verticalAlign=middle;whiteSpace=wrap;rounded=0;" parent="1" vertex="1">
          <mxGeometry x="260" y="170" width="210" height="20" as="geometry" />
        </mxCell>
        <mxCell id="m8QgqDnbLKsCeQyGqOP--21" value="&lt;div style=&quot;font-size: 15px;&quot;&gt;&lt;b&gt;B&lt;/b&gt;&lt;/div&gt;" style="text;html=1;align=center;verticalAlign=middle;whiteSpace=wrap;rounded=0;" parent="1" vertex="1">
          <mxGeometry x="590" y="-70" width="170" height="40" as="geometry" />
        </mxCell>
        <mxCell id="m8QgqDnbLKsCeQyGqOP--22" value="&lt;div style=&quot;font-size: 15px;&quot;&gt;&lt;b&gt;A&lt;/b&gt;&lt;/div&gt;" style="text;html=1;align=center;verticalAlign=middle;whiteSpace=wrap;rounded=0;" parent="1" vertex="1">
          <mxGeometry x="101.65" y="-20" width="170" height="20" as="geometry" />
        </mxCell>
        <mxCell id="m8QgqDnbLKsCeQyGqOP--28" value="" style="image;aspect=fixed;perimeter=ellipsePerimeter;html=1;align=center;shadow=0;dashed=0;spacingTop=3;image=img/lib/active_directory/laptop_client.svg;" parent="1" vertex="1">
          <mxGeometry x="160" y="390" width="73.29" height="81.43" as="geometry" />
        </mxCell>
        <mxCell id="m8QgqDnbLKsCeQyGqOP--29" value="IPPrivada&lt;div&gt;&lt;br&gt;&lt;/div&gt;" style="text;html=1;align=center;verticalAlign=middle;whiteSpace=wrap;rounded=0;" parent="1" vertex="1">
          <mxGeometry x="166.65" y="380" width="60" as="geometry" />
        </mxCell>
        <mxCell id="m8QgqDnbLKsCeQyGqOP--32" value="&lt;div style=&quot;font-size: 15px;&quot;&gt;&lt;b&gt;35.196.99.208&lt;/b&gt;&lt;br&gt;&lt;/div&gt;" style="text;html=1;align=center;verticalAlign=middle;whiteSpace=wrap;rounded=0;" parent="1" vertex="1">
          <mxGeometry x="600" y="300" width="170" height="40" as="geometry" />
        </mxCell>
        <mxCell id="m8QgqDnbLKsCeQyGqOP--36" value="" style="endArrow=classic;html=1;rounded=0;" parent="1" edge="1">
          <mxGeometry width="50" height="50" relative="1" as="geometry">
            <mxPoint x="270" y="390" as="sourcePoint" />
            <mxPoint x="490" y="390" as="targetPoint" />
          </mxGeometry>
        </mxCell>
        <mxCell id="m8QgqDnbLKsCeQyGqOP--37" value="Petición a 35.196.99.208:8082&lt;div&gt;Hola desde el cliente&lt;/div&gt;" style="text;html=1;align=center;verticalAlign=middle;whiteSpace=wrap;rounded=0;" parent="1" vertex="1">
          <mxGeometry x="270" y="340" width="210" height="40" as="geometry" />
        </mxCell>
        <mxCell id="m8QgqDnbLKsCeQyGqOP--38" value="" style="endArrow=none;html=1;rounded=0;startArrow=classic;startFill=1;endFill=0;" parent="1" edge="1">
          <mxGeometry width="50" height="50" relative="1" as="geometry">
            <mxPoint x="270" y="500" as="sourcePoint" />
            <mxPoint x="490" y="500" as="targetPoint" />
          </mxGeometry>
        </mxCell>
        <mxCell id="m8QgqDnbLKsCeQyGqOP--39" value="Respuesta: Hola, te saludo desde el servidor!" style="text;html=1;align=center;verticalAlign=middle;whiteSpace=wrap;rounded=0;" parent="1" vertex="1">
          <mxGeometry x="270" y="515.5" width="210" height="20" as="geometry" />
        </mxCell>
        <mxCell id="m8QgqDnbLKsCeQyGqOP--40" value="&lt;div&gt;Cliente.py&lt;/div&gt;" style="text;html=1;align=center;verticalAlign=middle;whiteSpace=wrap;rounded=0;" parent="1" vertex="1">
          <mxGeometry x="166.65" y="466.43" width="60" height="30" as="geometry" />
        </mxCell>
        <mxCell id="m8QgqDnbLKsCeQyGqOP--41" value="Si el servidor rechaza, el cliente reintenta reestablecer la conexión. Además, este envía peticiones cada 10 segundos (comprobar caidas)" style="text;html=1;align=center;verticalAlign=middle;whiteSpace=wrap;rounded=0;" parent="1" vertex="1">
          <mxGeometry x="271.65" y="570" width="210" height="20" as="geometry" />
        </mxCell>
        <mxCell id="m8QgqDnbLKsCeQyGqOP--42" value="&lt;div style=&quot;font-size: 15px;&quot;&gt;&lt;b&gt;B&lt;/b&gt;&lt;/div&gt;" style="text;html=1;align=center;verticalAlign=middle;whiteSpace=wrap;rounded=0;" parent="1" vertex="1">
          <mxGeometry x="600" y="280" width="170" height="40" as="geometry" />
        </mxCell>
        <mxCell id="m8QgqDnbLKsCeQyGqOP--45" value="&lt;div style=&quot;font-size: 15px;&quot;&gt;&lt;b&gt;A&lt;/b&gt;&lt;/div&gt;" style="text;html=1;align=center;verticalAlign=middle;whiteSpace=wrap;rounded=0;" parent="1" vertex="1">
          <mxGeometry x="111.65" y="340" width="170" height="20" as="geometry" />
        </mxCell>
        <mxCell id="m8QgqDnbLKsCeQyGqOP--46" value="&lt;div style=&quot;font-size: 15px;&quot;&gt;&lt;b&gt;H1&lt;/b&gt;&lt;/div&gt;" style="text;html=1;align=center;verticalAlign=middle;whiteSpace=wrap;rounded=0;" parent="1" vertex="1">
          <mxGeometry x="50" y="70" width="70" height="20" as="geometry" />
        </mxCell>
        <mxCell id="m8QgqDnbLKsCeQyGqOP--47" value="&lt;div style=&quot;font-size: 15px;&quot;&gt;&lt;b&gt;H2&lt;/b&gt;&lt;/div&gt;" style="text;html=1;align=center;verticalAlign=middle;whiteSpace=wrap;rounded=0;" parent="1" vertex="1">
          <mxGeometry x="50" y="420.72" width="70" height="20" as="geometry" />
        </mxCell>
        <mxCell id="m8QgqDnbLKsCeQyGqOP--49" value="&lt;div style=&quot;font-size: 15px;&quot;&gt;&lt;b&gt;GCLOUD&lt;/b&gt;&lt;/div&gt;" style="text;html=1;align=center;verticalAlign=middle;whiteSpace=wrap;rounded=0;" parent="1" vertex="1">
          <mxGeometry x="600" y="210" width="170" height="20" as="geometry" />
        </mxCell>
        <mxCell id="m8QgqDnbLKsCeQyGqOP--50" value="" style="endArrow=classic;html=1;rounded=0;" parent="1" edge="1">
          <mxGeometry width="50" height="50" relative="1" as="geometry">
            <mxPoint x="271.65" y="480" as="sourcePoint" />
            <mxPoint x="491.65" y="480" as="targetPoint" />
          </mxGeometry>
        </mxCell>
        <mxCell id="m8QgqDnbLKsCeQyGqOP--51" value="Petición a 35.196.99.208:8082&lt;div&gt;Hola desde el cliente&lt;/div&gt;" style="text;html=1;align=center;verticalAlign=middle;whiteSpace=wrap;rounded=0;" parent="1" vertex="1">
          <mxGeometry x="271.65" y="440" width="210" height="40" as="geometry" />
        </mxCell>
        <mxCell id="m8QgqDnbLKsCeQyGqOP--53" value="" style="endArrow=none;html=1;rounded=0;startArrow=classic;startFill=1;endFill=0;" parent="1" edge="1">
          <mxGeometry width="50" height="50" relative="1" as="geometry">
            <mxPoint x="270" y="416" as="sourcePoint" />
            <mxPoint x="490" y="415.72" as="targetPoint" />
          </mxGeometry>
        </mxCell>
        <mxCell id="m8QgqDnbLKsCeQyGqOP--55" value="" style="endArrow=none;html=1;rounded=0;startArrow=classic;startFill=1;endFill=0;" parent="1" edge="1">
          <mxGeometry width="50" height="50" relative="1" as="geometry">
            <mxPoint x="270" y="415.72" as="sourcePoint" />
            <mxPoint x="270" y="415.72000000000025" as="targetPoint" />
          </mxGeometry>
        </mxCell>
        <mxCell id="m8QgqDnbLKsCeQyGqOP--56" value="Conexion rechazada" style="text;html=1;align=center;verticalAlign=middle;whiteSpace=wrap;rounded=0;" parent="1" vertex="1">
          <mxGeometry x="270" y="400" width="210" height="10" as="geometry" />
        </mxCell>
        <mxCell id="m8QgqDnbLKsCeQyGqOP--57" value="10 minutos despues..." style="text;html=1;align=center;verticalAlign=middle;whiteSpace=wrap;rounded=0;" parent="1" vertex="1">
          <mxGeometry x="270" y="425.72" width="210" height="10" as="geometry" />
        </mxCell>
        <mxCell id="m8QgqDnbLKsCeQyGqOP--58" value="" style="ellipse;shape=cloud;whiteSpace=wrap;html=1;" parent="1" vertex="1">
          <mxGeometry x="510" y="705.5" width="350" height="250" as="geometry" />
        </mxCell>
        <mxCell id="m8QgqDnbLKsCeQyGqOP--59" value="" style="rounded=0;whiteSpace=wrap;html=1;" parent="1" vertex="1">
          <mxGeometry x="629.6" y="780.5" width="120" height="100" as="geometry" />
        </mxCell>
        <mxCell id="m8QgqDnbLKsCeQyGqOP--60" value="" style="image;aspect=fixed;perimeter=ellipsePerimeter;html=1;align=center;shadow=0;dashed=0;spacingTop=3;image=img/lib/active_directory/generic_server.svg;" parent="1" vertex="1">
          <mxGeometry x="700" y="795.5" width="39.2" height="70" as="geometry" />
        </mxCell>
        <mxCell id="m8QgqDnbLKsCeQyGqOP--61" value="" style="image;aspect=fixed;perimeter=ellipsePerimeter;html=1;align=center;shadow=0;dashed=0;spacingTop=3;image=img/lib/active_directory/laptop_client.svg;" parent="1" vertex="1">
          <mxGeometry x="160" y="775.5" width="73.29" height="81.43" as="geometry" />
        </mxCell>
        <mxCell id="m8QgqDnbLKsCeQyGqOP--62" value="IPPrivada&lt;div&gt;&lt;br&gt;&lt;/div&gt;" style="text;html=1;align=center;verticalAlign=middle;whiteSpace=wrap;rounded=0;" parent="1" vertex="1">
          <mxGeometry x="166.65" y="765.5" width="60" as="geometry" />
        </mxCell>
        <mxCell id="m8QgqDnbLKsCeQyGqOP--63" value="" style="image;sketch=0;aspect=fixed;html=1;points=[];align=center;fontSize=12;image=img/lib/mscae/Docker.svg;" parent="1" vertex="1">
          <mxGeometry x="610" y="860" width="50" height="41" as="geometry" />
        </mxCell>
        <mxCell id="m8QgqDnbLKsCeQyGqOP--64" value="" style="whiteSpace=wrap;html=1;shape=mxgraph.basic.cloud_rect" parent="1" vertex="1">
          <mxGeometry x="610" y="806.21" width="40" height="19.29" as="geometry" />
        </mxCell>
        <mxCell id="m8QgqDnbLKsCeQyGqOP--65" value="&lt;div style=&quot;font-size: 15px;&quot;&gt;&lt;b&gt;35.185.81.236&lt;/b&gt;&lt;/div&gt;" style="text;html=1;align=center;verticalAlign=middle;whiteSpace=wrap;rounded=0;" parent="1" vertex="1">
          <mxGeometry x="600" y="685.5" width="170" height="40" as="geometry" />
        </mxCell>
        <mxCell id="m8QgqDnbLKsCeQyGqOP--66" value="Servidor.py" style="text;html=1;align=center;verticalAlign=middle;whiteSpace=wrap;rounded=0;" parent="1" vertex="1">
          <mxGeometry x="689.6" y="856.9300000000001" width="60" height="30" as="geometry" />
        </mxCell>
        <mxCell id="m8QgqDnbLKsCeQyGqOP--67" value="8083" style="text;html=1;align=center;verticalAlign=middle;whiteSpace=wrap;rounded=0;" parent="1" vertex="1">
          <mxGeometry x="560" y="801.21" width="60" height="30" as="geometry" />
        </mxCell>
        <mxCell id="m8QgqDnbLKsCeQyGqOP--68" value="8080" style="text;html=1;align=center;verticalAlign=middle;whiteSpace=wrap;rounded=0;" parent="1" vertex="1">
          <mxGeometry x="640" y="801.22" width="60" height="30" as="geometry" />
        </mxCell>
        <mxCell id="m8QgqDnbLKsCeQyGqOP--69" value="" style="endArrow=classic;html=1;rounded=0;" parent="1" edge="1">
          <mxGeometry width="50" height="50" relative="1" as="geometry">
            <mxPoint x="270" y="775.5" as="sourcePoint" />
            <mxPoint x="490" y="775.5" as="targetPoint" />
          </mxGeometry>
        </mxCell>
        <mxCell id="m8QgqDnbLKsCeQyGqOP--70" value="Petición a 35.185.81.236:8083&lt;div&gt;Hola desde el cliente&lt;/div&gt;" style="text;html=1;align=center;verticalAlign=middle;whiteSpace=wrap;rounded=0;" parent="1" vertex="1">
          <mxGeometry x="270" y="725.5" width="210" height="40" as="geometry" />
        </mxCell>
        <mxCell id="m8QgqDnbLKsCeQyGqOP--71" value="" style="endArrow=none;html=1;rounded=0;startArrow=classic;startFill=1;endFill=0;" parent="1" edge="1">
          <mxGeometry width="50" height="50" relative="1" as="geometry">
            <mxPoint x="270" y="885.5" as="sourcePoint" />
            <mxPoint x="490" y="885.5" as="targetPoint" />
          </mxGeometry>
        </mxCell>
        <mxCell id="m8QgqDnbLKsCeQyGqOP--72" value="Respuesta: Hola, te saludo desde el servidor!" style="text;html=1;align=center;verticalAlign=middle;whiteSpace=wrap;rounded=0;" parent="1" vertex="1">
          <mxGeometry x="270" y="901" width="210" height="20" as="geometry" />
        </mxCell>
        <mxCell id="m8QgqDnbLKsCeQyGqOP--73" value="&lt;div&gt;Cliente.py&lt;/div&gt;" style="text;html=1;align=center;verticalAlign=middle;whiteSpace=wrap;rounded=0;" parent="1" vertex="1">
          <mxGeometry x="166.65" y="851.9300000000001" width="60" height="30" as="geometry" />
        </mxCell>
        <mxCell id="m8QgqDnbLKsCeQyGqOP--74" value="El servidor Se mantiene activo una vez que el proceso A cierre la conexion" style="text;html=1;align=center;verticalAlign=middle;whiteSpace=wrap;rounded=0;" parent="1" vertex="1">
          <mxGeometry x="271.65" y="945.5" width="210" height="20" as="geometry" />
        </mxCell>
        <mxCell id="m8QgqDnbLKsCeQyGqOP--75" value="&lt;div style=&quot;font-size: 15px;&quot;&gt;&lt;b&gt;A&lt;/b&gt;&lt;/div&gt;" style="text;html=1;align=center;verticalAlign=middle;whiteSpace=wrap;rounded=0;" parent="1" vertex="1">
          <mxGeometry x="111.65" y="725.5" width="170" height="20" as="geometry" />
        </mxCell>
        <mxCell id="m8QgqDnbLKsCeQyGqOP--76" value="&lt;div style=&quot;font-size: 15px;&quot;&gt;&lt;b&gt;H3&lt;/b&gt;&lt;/div&gt;" style="text;html=1;align=center;verticalAlign=middle;whiteSpace=wrap;rounded=0;" parent="1" vertex="1">
          <mxGeometry x="50" y="806.22" width="70" height="20" as="geometry" />
        </mxCell>
        <mxCell id="m8QgqDnbLKsCeQyGqOP--77" value="&lt;div style=&quot;font-size: 15px;&quot;&gt;&lt;b&gt;GCLOUD&lt;/b&gt;&lt;/div&gt;" style="text;html=1;align=center;verticalAlign=middle;whiteSpace=wrap;rounded=0;" parent="1" vertex="1">
          <mxGeometry x="604.6" y="955.5" width="170" height="20" as="geometry" />
        </mxCell>
        <mxCell id="m8QgqDnbLKsCeQyGqOP--78" value="" style="endArrow=classic;html=1;rounded=0;" parent="1" edge="1">
          <mxGeometry width="50" height="50" relative="1" as="geometry">
            <mxPoint x="271.65" y="865.5" as="sourcePoint" />
            <mxPoint x="491.65" y="865.5" as="targetPoint" />
          </mxGeometry>
        </mxCell>
        <mxCell id="m8QgqDnbLKsCeQyGqOP--79" value="Petición a 35.185.81.236:8083&lt;div&gt;Hola desde el cliente&lt;/div&gt;" style="text;html=1;align=center;verticalAlign=middle;whiteSpace=wrap;rounded=0;" parent="1" vertex="1">
          <mxGeometry x="271.65" y="825.5" width="210" height="40" as="geometry" />
        </mxCell>
        <mxCell id="m8QgqDnbLKsCeQyGqOP--80" value="" style="endArrow=none;html=1;rounded=0;startArrow=classic;startFill=1;endFill=0;" parent="1" edge="1">
          <mxGeometry width="50" height="50" relative="1" as="geometry">
            <mxPoint x="270" y="801.5" as="sourcePoint" />
            <mxPoint x="490" y="801.22" as="targetPoint" />
          </mxGeometry>
        </mxCell>
        <mxCell id="m8QgqDnbLKsCeQyGqOP--81" value="" style="endArrow=none;html=1;rounded=0;startArrow=classic;startFill=1;endFill=0;" parent="1" edge="1">
          <mxGeometry width="50" height="50" relative="1" as="geometry">
            <mxPoint x="270" y="801.22" as="sourcePoint" />
            <mxPoint x="270" y="801.2200000000003" as="targetPoint" />
          </mxGeometry>
        </mxCell>
        <mxCell id="m8QgqDnbLKsCeQyGqOP--82" value="Conexion rechazada" style="text;html=1;align=center;verticalAlign=middle;whiteSpace=wrap;rounded=0;" parent="1" vertex="1">
          <mxGeometry x="270" y="785.5" width="210" height="10" as="geometry" />
        </mxCell>
        <mxCell id="m8QgqDnbLKsCeQyGqOP--83" value="10 minutos despues..." style="text;html=1;align=center;verticalAlign=middle;whiteSpace=wrap;rounded=0;" parent="1" vertex="1">
          <mxGeometry x="270" y="811.22" width="210" height="10" as="geometry" />
        </mxCell>
        <mxCell id="m8QgqDnbLKsCeQyGqOP--84" value="Enviada la respuesta, se cierra la conexion y B deja de funcionar" style="text;html=1;align=center;verticalAlign=middle;whiteSpace=wrap;rounded=0;fontSize=9;" parent="1" vertex="1">
          <mxGeometry x="774.6" y="550" width="130" height="20" as="geometry" />
        </mxCell>
        <mxCell id="m8QgqDnbLKsCeQyGqOP--86" value="&lt;div style=&quot;font-size: 15px;&quot;&gt;&lt;b&gt;B&lt;/b&gt;&lt;/div&gt;" style="text;html=1;align=center;verticalAlign=middle;whiteSpace=wrap;rounded=0;" parent="1" vertex="1">
          <mxGeometry x="594.6" y="660" width="170" height="40" as="geometry" />
        </mxCell>
        <mxCell id="m8QgqDnbLKsCeQyGqOP--87" value="" style="ellipse;shape=cloud;whiteSpace=wrap;html=1;" parent="1" vertex="1">
          <mxGeometry x="570" y="1065.5" width="350" height="334.5" as="geometry" />
        </mxCell>
        <mxCell id="m8QgqDnbLKsCeQyGqOP--88" value="" style="rounded=0;whiteSpace=wrap;html=1;" parent="1" vertex="1">
          <mxGeometry x="689.6" y="1140.5" width="120" height="179.5" as="geometry" />
        </mxCell>
        <mxCell id="m8QgqDnbLKsCeQyGqOP--89" value="" style="image;aspect=fixed;perimeter=ellipsePerimeter;html=1;align=center;shadow=0;dashed=0;spacingTop=3;image=img/lib/active_directory/generic_server.svg;" parent="1" vertex="1">
          <mxGeometry x="760" y="1146.22" width="33.6" height="60" as="geometry" />
        </mxCell>
        <mxCell id="m8QgqDnbLKsCeQyGqOP--90" value="" style="image;aspect=fixed;perimeter=ellipsePerimeter;html=1;align=center;shadow=0;dashed=0;spacingTop=3;image=img/lib/active_directory/laptop_client.svg;" parent="1" vertex="1">
          <mxGeometry x="720.0000000000001" y="1241.93" width="57.05" height="63.39" as="geometry" />
        </mxCell>
        <mxCell id="m8QgqDnbLKsCeQyGqOP--92" value="" style="image;sketch=0;aspect=fixed;html=1;points=[];align=center;fontSize=12;image=img/lib/mscae/Docker.svg;" parent="1" vertex="1">
          <mxGeometry x="670" y="1300" width="50" height="41" as="geometry" />
        </mxCell>
        <mxCell id="m8QgqDnbLKsCeQyGqOP--93" value="" style="whiteSpace=wrap;html=1;shape=mxgraph.basic.cloud_rect" parent="1" vertex="1">
          <mxGeometry x="670" y="1166.21" width="40" height="19.29" as="geometry" />
        </mxCell>
        <mxCell id="m8QgqDnbLKsCeQyGqOP--94" value="&lt;div style=&quot;font-size: 15px;&quot;&gt;&lt;b&gt;35.185.81.236&lt;/b&gt;&lt;/div&gt;" style="text;html=1;align=center;verticalAlign=middle;whiteSpace=wrap;rounded=0;" parent="1" vertex="1">
          <mxGeometry x="660" y="1045.5" width="170" height="40" as="geometry" />
        </mxCell>
        <mxCell id="m8QgqDnbLKsCeQyGqOP--95" value="Serv_cly.py" style="text;html=1;align=center;verticalAlign=middle;whiteSpace=wrap;rounded=0;" parent="1" vertex="1">
          <mxGeometry x="746.8000000000001" y="1211.93" width="60" height="30" as="geometry" />
        </mxCell>
        <mxCell id="m8QgqDnbLKsCeQyGqOP--96" value="8084" style="text;html=1;align=center;verticalAlign=middle;whiteSpace=wrap;rounded=0;" parent="1" vertex="1">
          <mxGeometry x="620" y="1161.21" width="60" height="30" as="geometry" />
        </mxCell>
        <mxCell id="m8QgqDnbLKsCeQyGqOP--97" value="8080" style="text;html=1;align=center;verticalAlign=middle;whiteSpace=wrap;rounded=0;" parent="1" vertex="1">
          <mxGeometry x="700" y="1161.22" width="60" height="30" as="geometry" />
        </mxCell>
        <mxCell id="m8QgqDnbLKsCeQyGqOP--105" value="&lt;div style=&quot;font-size: 15px;&quot;&gt;&lt;b&gt;H4&lt;/b&gt;&lt;/div&gt;" style="text;html=1;align=center;verticalAlign=middle;whiteSpace=wrap;rounded=0;" parent="1" vertex="1">
          <mxGeometry x="60" y="1166.22" width="70" height="20" as="geometry" />
        </mxCell>
        <mxCell id="m8QgqDnbLKsCeQyGqOP--106" value="&lt;div style=&quot;font-size: 15px;&quot;&gt;&lt;b&gt;GCLOUD&lt;/b&gt;&lt;/div&gt;" style="text;html=1;align=center;verticalAlign=middle;whiteSpace=wrap;rounded=0;" parent="1" vertex="1">
          <mxGeometry x="664.6" y="1400" width="170" height="20" as="geometry" />
        </mxCell>
        <mxCell id="m8QgqDnbLKsCeQyGqOP--113" value="&lt;div style=&quot;font-size: 15px;&quot;&gt;&lt;b&gt;B&lt;/b&gt;&lt;/div&gt;" style="text;html=1;align=center;verticalAlign=middle;whiteSpace=wrap;rounded=0;" parent="1" vertex="1">
          <mxGeometry x="654.6" y="1020" width="170" height="40" as="geometry" />
        </mxCell>
        <mxCell id="m8QgqDnbLKsCeQyGqOP--115" value="" style="ellipse;shape=cloud;whiteSpace=wrap;html=1;" parent="1" vertex="1">
          <mxGeometry x="119.99999999999997" y="1065.5" width="350" height="334.5" as="geometry" />
        </mxCell>
        <mxCell id="m8QgqDnbLKsCeQyGqOP--116" value="" style="rounded=0;whiteSpace=wrap;html=1;" parent="1" vertex="1">
          <mxGeometry x="239.6" y="1140.5" width="120" height="179.5" as="geometry" />
        </mxCell>
        <mxCell id="m8QgqDnbLKsCeQyGqOP--117" value="" style="image;aspect=fixed;perimeter=ellipsePerimeter;html=1;align=center;shadow=0;dashed=0;spacingTop=3;image=img/lib/active_directory/generic_server.svg;" parent="1" vertex="1">
          <mxGeometry x="253.2" y="1146.22" width="33.6" height="60" as="geometry" />
        </mxCell>
        <mxCell id="m8QgqDnbLKsCeQyGqOP--118" value="" style="image;aspect=fixed;perimeter=ellipsePerimeter;html=1;align=center;shadow=0;dashed=0;spacingTop=3;image=img/lib/active_directory/laptop_client.svg;" parent="1" vertex="1">
          <mxGeometry x="270.0000000000001" y="1241.93" width="57.05" height="63.39" as="geometry" />
        </mxCell>
        <mxCell id="m8QgqDnbLKsCeQyGqOP--119" value="" style="image;sketch=0;aspect=fixed;html=1;points=[];align=center;fontSize=12;image=img/lib/mscae/Docker.svg;" parent="1" vertex="1">
          <mxGeometry x="219.99999999999997" y="1300" width="50" height="41" as="geometry" />
        </mxCell>
        <mxCell id="m8QgqDnbLKsCeQyGqOP--120" value="" style="whiteSpace=wrap;html=1;shape=mxgraph.basic.cloud_rect" parent="1" vertex="1">
          <mxGeometry x="340" y="1166.21" width="40" height="19.29" as="geometry" />
        </mxCell>
        <mxCell id="m8QgqDnbLKsCeQyGqOP--121" value="&lt;div style=&quot;font-size: 15px;&quot;&gt;&lt;b&gt;35.196.99.208&lt;/b&gt;&lt;/div&gt;" style="text;html=1;align=center;verticalAlign=middle;whiteSpace=wrap;rounded=0;" parent="1" vertex="1">
          <mxGeometry x="209.99999999999997" y="1045.5" width="170" height="40" as="geometry" />
        </mxCell>
        <mxCell id="m8QgqDnbLKsCeQyGqOP--122" value="Serv_cly.py" style="text;html=1;align=center;verticalAlign=middle;whiteSpace=wrap;rounded=0;" parent="1" vertex="1">
          <mxGeometry x="240.00000000000006" y="1211.93" width="60" height="30" as="geometry" />
        </mxCell>
        <mxCell id="m8QgqDnbLKsCeQyGqOP--123" value="8080" style="text;html=1;align=center;verticalAlign=middle;whiteSpace=wrap;rounded=0;" parent="1" vertex="1">
          <mxGeometry x="286.79999999999995" y="1160.8500000000001" width="60" height="30" as="geometry" />
        </mxCell>
        <mxCell id="m8QgqDnbLKsCeQyGqOP--124" value="8084" style="text;html=1;align=center;verticalAlign=middle;whiteSpace=wrap;rounded=0;" parent="1" vertex="1">
          <mxGeometry x="366.79999999999995" y="1160.8600000000001" width="60" height="30" as="geometry" />
        </mxCell>
        <mxCell id="m8QgqDnbLKsCeQyGqOP--125" value="&lt;div style=&quot;font-size: 15px;&quot;&gt;&lt;b&gt;GCLOUD&lt;/b&gt;&lt;/div&gt;" style="text;html=1;align=center;verticalAlign=middle;whiteSpace=wrap;rounded=0;" parent="1" vertex="1">
          <mxGeometry x="214.6" y="1400" width="170" height="20" as="geometry" />
        </mxCell>
        <mxCell id="m8QgqDnbLKsCeQyGqOP--126" value="&lt;div style=&quot;font-size: 15px;&quot;&gt;&lt;b&gt;A&lt;/b&gt;&lt;/div&gt;" style="text;html=1;align=center;verticalAlign=middle;whiteSpace=wrap;rounded=0;" parent="1" vertex="1">
          <mxGeometry x="204.6" y="1020" width="170" height="40" as="geometry" />
        </mxCell>
        <mxCell id="m8QgqDnbLKsCeQyGqOP--127" value="" style="endArrow=classic;html=1;rounded=0;exitX=1;exitY=0.5;exitDx=0;exitDy=0;" parent="1" source="m8QgqDnbLKsCeQyGqOP--118" target="m8QgqDnbLKsCeQyGqOP--96" edge="1">
          <mxGeometry width="50" height="50" relative="1" as="geometry">
            <mxPoint x="330" y="1290" as="sourcePoint" />
            <mxPoint x="380" y="1240" as="targetPoint" />
          </mxGeometry>
        </mxCell>
        <mxCell id="m8QgqDnbLKsCeQyGqOP--129" value="" style="endArrow=classic;html=1;rounded=0;exitX=0;exitY=0.25;exitDx=0;exitDy=0;entryX=1;entryY=0.5;entryDx=0;entryDy=0;" parent="1" source="m8QgqDnbLKsCeQyGqOP--90" target="m8QgqDnbLKsCeQyGqOP--124" edge="1">
          <mxGeometry width="50" height="50" relative="1" as="geometry">
            <mxPoint x="330" y="1290" as="sourcePoint" />
            <mxPoint x="380" y="1240" as="targetPoint" />
          </mxGeometry>
        </mxCell>
        <mxCell id="m8QgqDnbLKsCeQyGqOP--130" value="" style="endArrow=classic;html=1;rounded=0;" parent="1" edge="1">
          <mxGeometry width="50" height="50" relative="1" as="geometry">
            <mxPoint x="194" y="1480" as="sourcePoint" />
            <mxPoint x="414" y="1480" as="targetPoint" />
          </mxGeometry>
        </mxCell>
        <mxCell id="m8QgqDnbLKsCeQyGqOP--131" value="Petición a 35.185.81.236:8084&lt;div&gt;Hola desde el cliente&lt;/div&gt;" style="text;html=1;align=center;verticalAlign=middle;whiteSpace=wrap;rounded=0;" parent="1" vertex="1">
          <mxGeometry x="194" y="1430" width="210" height="40" as="geometry" />
        </mxCell>
        <mxCell id="m8QgqDnbLKsCeQyGqOP--132" value="" style="endArrow=none;html=1;rounded=0;startArrow=classic;startFill=1;endFill=0;" parent="1" edge="1">
          <mxGeometry width="50" height="50" relative="1" as="geometry">
            <mxPoint x="194" y="1490" as="sourcePoint" />
            <mxPoint x="414" y="1490" as="targetPoint" />
          </mxGeometry>
        </mxCell>
        <mxCell id="m8QgqDnbLKsCeQyGqOP--133" value="Respuesta: Hola, te saludo desde el servidor!" style="text;html=1;align=center;verticalAlign=middle;whiteSpace=wrap;rounded=0;" parent="1" vertex="1">
          <mxGeometry x="194" y="1501.43" width="210" height="20" as="geometry" />
        </mxCell>
        <mxCell id="m8QgqDnbLKsCeQyGqOP--134" value="" style="endArrow=classic;html=1;rounded=0;" parent="1" edge="1">
          <mxGeometry width="50" height="50" relative="1" as="geometry">
            <mxPoint x="640" y="1480" as="sourcePoint" />
            <mxPoint x="860" y="1480" as="targetPoint" />
          </mxGeometry>
        </mxCell>
        <mxCell id="m8QgqDnbLKsCeQyGqOP--135" value="Petición a 35.196.99.208:8084&lt;div&gt;Hola desde el cliente&lt;/div&gt;" style="text;html=1;align=center;verticalAlign=middle;whiteSpace=wrap;rounded=0;" parent="1" vertex="1">
          <mxGeometry x="640" y="1430" width="210" height="40" as="geometry" />
        </mxCell>
        <mxCell id="m8QgqDnbLKsCeQyGqOP--136" value="" style="endArrow=none;html=1;rounded=0;startArrow=classic;startFill=1;endFill=0;" parent="1" edge="1">
          <mxGeometry width="50" height="50" relative="1" as="geometry">
            <mxPoint x="640" y="1490" as="sourcePoint" />
            <mxPoint x="860" y="1490" as="targetPoint" />
          </mxGeometry>
        </mxCell>
        <mxCell id="m8QgqDnbLKsCeQyGqOP--137" value="Respuesta: Hola, te saludo desde el servidor!" style="text;html=1;align=center;verticalAlign=middle;whiteSpace=wrap;rounded=0;" parent="1" vertex="1">
          <mxGeometry x="640" y="1501.43" width="210" height="20" as="geometry" />
        </mxCell>
        <mxCell id="m8QgqDnbLKsCeQyGqOP--138" value="" style="ellipse;shape=cloud;whiteSpace=wrap;html=1;" parent="1" vertex="1">
          <mxGeometry x="570" y="1685.5" width="350" height="334.5" as="geometry" />
        </mxCell>
        <mxCell id="m8QgqDnbLKsCeQyGqOP--139" value="" style="rounded=0;whiteSpace=wrap;html=1;" parent="1" vertex="1">
          <mxGeometry x="689.6" y="1760.5" width="120" height="179.5" as="geometry" />
        </mxCell>
        <mxCell id="m8QgqDnbLKsCeQyGqOP--140" value="" style="image;aspect=fixed;perimeter=ellipsePerimeter;html=1;align=center;shadow=0;dashed=0;spacingTop=3;image=img/lib/active_directory/generic_server.svg;" parent="1" vertex="1">
          <mxGeometry x="760" y="1766.22" width="33.6" height="60" as="geometry" />
        </mxCell>
        <mxCell id="m8QgqDnbLKsCeQyGqOP--141" value="" style="image;aspect=fixed;perimeter=ellipsePerimeter;html=1;align=center;shadow=0;dashed=0;spacingTop=3;image=img/lib/active_directory/laptop_client.svg;" parent="1" vertex="1">
          <mxGeometry x="720.0000000000001" y="1861.93" width="57.05" height="63.39" as="geometry" />
        </mxCell>
        <mxCell id="m8QgqDnbLKsCeQyGqOP--142" value="" style="image;sketch=0;aspect=fixed;html=1;points=[];align=center;fontSize=12;image=img/lib/mscae/Docker.svg;" parent="1" vertex="1">
          <mxGeometry x="670" y="1920" width="50" height="41" as="geometry" />
        </mxCell>
        <mxCell id="m8QgqDnbLKsCeQyGqOP--143" value="" style="whiteSpace=wrap;html=1;shape=mxgraph.basic.cloud_rect" parent="1" vertex="1">
          <mxGeometry x="670" y="1786.21" width="40" height="19.29" as="geometry" />
        </mxCell>
        <mxCell id="m8QgqDnbLKsCeQyGqOP--144" value="&lt;div style=&quot;font-size: 15px;&quot;&gt;&lt;b&gt;35.185.81.236&lt;/b&gt;&lt;/div&gt;" style="text;html=1;align=center;verticalAlign=middle;whiteSpace=wrap;rounded=0;" parent="1" vertex="1">
          <mxGeometry x="660" y="1665.5" width="170" height="40" as="geometry" />
        </mxCell>
        <mxCell id="m8QgqDnbLKsCeQyGqOP--145" value="Serv_cly.py" style="text;html=1;align=center;verticalAlign=middle;whiteSpace=wrap;rounded=0;" parent="1" vertex="1">
          <mxGeometry x="746.8000000000001" y="1831.93" width="60" height="30" as="geometry" />
        </mxCell>
        <mxCell id="m8QgqDnbLKsCeQyGqOP--146" value="8085" style="text;html=1;align=center;verticalAlign=middle;whiteSpace=wrap;rounded=0;" parent="1" vertex="1">
          <mxGeometry x="620" y="1781.21" width="60" height="30" as="geometry" />
        </mxCell>
        <mxCell id="m8QgqDnbLKsCeQyGqOP--147" value="8080" style="text;html=1;align=center;verticalAlign=middle;whiteSpace=wrap;rounded=0;" parent="1" vertex="1">
          <mxGeometry x="700" y="1781.22" width="60" height="30" as="geometry" />
        </mxCell>
        <mxCell id="m8QgqDnbLKsCeQyGqOP--148" value="&lt;div style=&quot;font-size: 15px;&quot;&gt;&lt;b&gt;H5&lt;/b&gt;&lt;/div&gt;" style="text;html=1;align=center;verticalAlign=middle;whiteSpace=wrap;rounded=0;" parent="1" vertex="1">
          <mxGeometry x="60" y="1786.22" width="70" height="20" as="geometry" />
        </mxCell>
        <mxCell id="m8QgqDnbLKsCeQyGqOP--150" value="&lt;div style=&quot;font-size: 15px;&quot;&gt;&lt;b&gt;B&lt;/b&gt;&lt;/div&gt;" style="text;html=1;align=center;verticalAlign=middle;whiteSpace=wrap;rounded=0;" parent="1" vertex="1">
          <mxGeometry x="654.6" y="1640" width="170" height="40" as="geometry" />
        </mxCell>
        <mxCell id="m8QgqDnbLKsCeQyGqOP--151" value="" style="ellipse;shape=cloud;whiteSpace=wrap;html=1;" parent="1" vertex="1">
          <mxGeometry x="119.99999999999997" y="1685.5" width="350" height="334.5" as="geometry" />
        </mxCell>
        <mxCell id="m8QgqDnbLKsCeQyGqOP--152" value="" style="rounded=0;whiteSpace=wrap;html=1;" parent="1" vertex="1">
          <mxGeometry x="239.6" y="1760.5" width="120" height="179.5" as="geometry" />
        </mxCell>
        <mxCell id="m8QgqDnbLKsCeQyGqOP--153" value="" style="image;aspect=fixed;perimeter=ellipsePerimeter;html=1;align=center;shadow=0;dashed=0;spacingTop=3;image=img/lib/active_directory/generic_server.svg;" parent="1" vertex="1">
          <mxGeometry x="253.2" y="1766.22" width="33.6" height="60" as="geometry" />
        </mxCell>
        <mxCell id="m8QgqDnbLKsCeQyGqOP--154" value="" style="image;aspect=fixed;perimeter=ellipsePerimeter;html=1;align=center;shadow=0;dashed=0;spacingTop=3;image=img/lib/active_directory/laptop_client.svg;" parent="1" vertex="1">
          <mxGeometry x="270.0000000000001" y="1861.93" width="57.05" height="63.39" as="geometry" />
        </mxCell>
        <mxCell id="m8QgqDnbLKsCeQyGqOP--155" value="" style="image;sketch=0;aspect=fixed;html=1;points=[];align=center;fontSize=12;image=img/lib/mscae/Docker.svg;" parent="1" vertex="1">
          <mxGeometry x="219.99999999999997" y="1920" width="50" height="41" as="geometry" />
        </mxCell>
        <mxCell id="m8QgqDnbLKsCeQyGqOP--156" value="" style="whiteSpace=wrap;html=1;shape=mxgraph.basic.cloud_rect" parent="1" vertex="1">
          <mxGeometry x="340" y="1786.21" width="40" height="19.29" as="geometry" />
        </mxCell>
        <mxCell id="m8QgqDnbLKsCeQyGqOP--157" value="&lt;div style=&quot;font-size: 15px;&quot;&gt;&lt;b&gt;35.196.99.208&lt;/b&gt;&lt;/div&gt;" style="text;html=1;align=center;verticalAlign=middle;whiteSpace=wrap;rounded=0;" parent="1" vertex="1">
          <mxGeometry x="209.99999999999997" y="1665.5" width="170" height="40" as="geometry" />
        </mxCell>
        <mxCell id="m8QgqDnbLKsCeQyGqOP--158" value="Serv_cly.py" style="text;html=1;align=center;verticalAlign=middle;whiteSpace=wrap;rounded=0;" parent="1" vertex="1">
          <mxGeometry x="240.00000000000006" y="1831.93" width="60" height="30" as="geometry" />
        </mxCell>
        <mxCell id="m8QgqDnbLKsCeQyGqOP--159" value="8080" style="text;html=1;align=center;verticalAlign=middle;whiteSpace=wrap;rounded=0;" parent="1" vertex="1">
          <mxGeometry x="286.79999999999995" y="1780.8500000000001" width="60" height="30" as="geometry" />
        </mxCell>
        <mxCell id="m8QgqDnbLKsCeQyGqOP--160" value="8085" style="text;html=1;align=center;verticalAlign=middle;whiteSpace=wrap;rounded=0;" parent="1" vertex="1">
          <mxGeometry x="366.79999999999995" y="1780.8600000000001" width="60" height="30" as="geometry" />
        </mxCell>
        <mxCell id="m8QgqDnbLKsCeQyGqOP--161" value="&lt;div style=&quot;font-size: 15px;&quot;&gt;&lt;b&gt;GCLOUD&lt;/b&gt;&lt;/div&gt;" style="text;html=1;align=center;verticalAlign=middle;whiteSpace=wrap;rounded=0;" parent="1" vertex="1">
          <mxGeometry x="214.6" y="2020" width="170" height="20" as="geometry" />
        </mxCell>
        <mxCell id="m8QgqDnbLKsCeQyGqOP--162" value="&lt;div style=&quot;font-size: 15px;&quot;&gt;&lt;b&gt;A&lt;/b&gt;&lt;/div&gt;" style="text;html=1;align=center;verticalAlign=middle;whiteSpace=wrap;rounded=0;" parent="1" vertex="1">
          <mxGeometry x="204.6" y="1640" width="170" height="40" as="geometry" />
        </mxCell>
        <mxCell id="m8QgqDnbLKsCeQyGqOP--163" value="" style="endArrow=classic;html=1;rounded=0;exitX=1;exitY=0.5;exitDx=0;exitDy=0;" parent="1" source="m8QgqDnbLKsCeQyGqOP--154" target="m8QgqDnbLKsCeQyGqOP--146" edge="1">
          <mxGeometry width="50" height="50" relative="1" as="geometry">
            <mxPoint x="330" y="1910" as="sourcePoint" />
            <mxPoint x="380" y="1860" as="targetPoint" />
          </mxGeometry>
        </mxCell>
        <mxCell id="m8QgqDnbLKsCeQyGqOP--164" value="" style="endArrow=classic;html=1;rounded=0;exitX=0;exitY=0.25;exitDx=0;exitDy=0;entryX=1;entryY=0.5;entryDx=0;entryDy=0;" parent="1" source="m8QgqDnbLKsCeQyGqOP--141" target="m8QgqDnbLKsCeQyGqOP--160" edge="1">
          <mxGeometry width="50" height="50" relative="1" as="geometry">
            <mxPoint x="330" y="1910" as="sourcePoint" />
            <mxPoint x="380" y="1860" as="targetPoint" />
          </mxGeometry>
        </mxCell>
        <mxCell id="m8QgqDnbLKsCeQyGqOP--165" value="" style="endArrow=classic;html=1;rounded=0;" parent="1" edge="1">
          <mxGeometry width="50" height="50" relative="1" as="geometry">
            <mxPoint x="194" y="2100" as="sourcePoint" />
            <mxPoint x="414" y="2100" as="targetPoint" />
          </mxGeometry>
        </mxCell>
        <mxCell id="m8QgqDnbLKsCeQyGqOP--166" value="Petición a 35.185.81.236:8085&lt;div&gt;{&quot;mensaje&quot;: &quot;Hola desde el cliente&quot;}&lt;/div&gt;" style="text;html=1;align=center;verticalAlign=middle;whiteSpace=wrap;rounded=0;" parent="1" vertex="1">
          <mxGeometry x="194" y="2050" width="210" height="40" as="geometry" />
        </mxCell>
        <mxCell id="m8QgqDnbLKsCeQyGqOP--167" value="" style="endArrow=none;html=1;rounded=0;startArrow=classic;startFill=1;endFill=0;" parent="1" edge="1">
          <mxGeometry width="50" height="50" relative="1" as="geometry">
            <mxPoint x="194" y="2110" as="sourcePoint" />
            <mxPoint x="414" y="2110" as="targetPoint" />
          </mxGeometry>
        </mxCell>
        <mxCell id="m8QgqDnbLKsCeQyGqOP--168" value="Respuesta: { &quot;mensaje&quot;: &quot;Hola, te saludo desde el servidor!&quot;}" style="text;html=1;align=center;verticalAlign=middle;whiteSpace=wrap;rounded=0;" parent="1" vertex="1">
          <mxGeometry x="194" y="2121.4300000000003" width="210" height="20" as="geometry" />
        </mxCell>
        <mxCell id="m8QgqDnbLKsCeQyGqOP--173" value="&lt;div style=&quot;font-size: 15px;&quot;&gt;&lt;b&gt;GCLOUD&lt;/b&gt;&lt;/div&gt;" style="text;html=1;align=center;verticalAlign=middle;whiteSpace=wrap;rounded=0;" parent="1" vertex="1">
          <mxGeometry x="670.6" y="2020" width="170" height="20" as="geometry" />
        </mxCell>
        <mxCell id="m8QgqDnbLKsCeQyGqOP--174" value="" style="endArrow=classic;html=1;rounded=0;" parent="1" edge="1">
          <mxGeometry width="50" height="50" relative="1" as="geometry">
            <mxPoint x="650" y="2100" as="sourcePoint" />
            <mxPoint x="870" y="2100" as="targetPoint" />
          </mxGeometry>
        </mxCell>
        <mxCell id="m8QgqDnbLKsCeQyGqOP--175" value="Petición a 35.196.99.208:8085&lt;div&gt;{&quot;mensaje&quot;: &quot;Hola desde el cliente&quot;}&lt;/div&gt;" style="text;html=1;align=center;verticalAlign=middle;whiteSpace=wrap;rounded=0;" parent="1" vertex="1">
          <mxGeometry x="650" y="2050" width="210" height="40" as="geometry" />
        </mxCell>
        <mxCell id="m8QgqDnbLKsCeQyGqOP--176" value="" style="endArrow=none;html=1;rounded=0;startArrow=classic;startFill=1;endFill=0;" parent="1" edge="1">
          <mxGeometry width="50" height="50" relative="1" as="geometry">
            <mxPoint x="650" y="2110" as="sourcePoint" />
            <mxPoint x="870" y="2110" as="targetPoint" />
          </mxGeometry>
        </mxCell>
        <mxCell id="m8QgqDnbLKsCeQyGqOP--177" value="Respuesta: { &quot;mensaje&quot;: &quot;Hola, te saludo desde el servidor!&quot;}" style="text;html=1;align=center;verticalAlign=middle;whiteSpace=wrap;rounded=0;" parent="1" vertex="1">
          <mxGeometry x="650" y="2121.4300000000003" width="210" height="20" as="geometry" />
        </mxCell>
        <mxCell id="m8QgqDnbLKsCeQyGqOP--178" value="" style="ellipse;shape=cloud;whiteSpace=wrap;html=1;" parent="1" vertex="1">
          <mxGeometry x="140" y="2210" width="310" height="640" as="geometry" />
        </mxCell>
        <mxCell id="m8QgqDnbLKsCeQyGqOP--179" value="" style="rounded=0;whiteSpace=wrap;html=1;" parent="1" vertex="1">
          <mxGeometry x="739.6" y="2349.5" width="120" height="179.5" as="geometry" />
        </mxCell>
        <mxCell id="m8QgqDnbLKsCeQyGqOP--180" value="" style="image;aspect=fixed;perimeter=ellipsePerimeter;html=1;align=center;shadow=0;dashed=0;spacingTop=3;image=img/lib/active_directory/generic_server.svg;" parent="1" vertex="1">
          <mxGeometry x="810" y="2355.2200000000003" width="33.6" height="60" as="geometry" />
        </mxCell>
        <mxCell id="m8QgqDnbLKsCeQyGqOP--181" value="" style="image;aspect=fixed;perimeter=ellipsePerimeter;html=1;align=center;shadow=0;dashed=0;spacingTop=3;image=img/lib/active_directory/laptop_client.svg;" parent="1" vertex="1">
          <mxGeometry x="770.0000000000001" y="2450.9300000000003" width="57.05" height="63.39" as="geometry" />
        </mxCell>
        <mxCell id="m8QgqDnbLKsCeQyGqOP--182" value="" style="image;sketch=0;aspect=fixed;html=1;points=[];align=center;fontSize=12;image=img/lib/mscae/Docker.svg;" parent="1" vertex="1">
          <mxGeometry x="830" y="2509" width="50" height="41" as="geometry" />
        </mxCell>
        <mxCell id="m8QgqDnbLKsCeQyGqOP--183" value="" style="whiteSpace=wrap;html=1;shape=mxgraph.basic.cloud_rect" parent="1" vertex="1">
          <mxGeometry x="720" y="2375.21" width="40" height="19.29" as="geometry" />
        </mxCell>
        <mxCell id="m8QgqDnbLKsCeQyGqOP--184" value="&lt;div style=&quot;font-size: 15px;&quot;&gt;&lt;b&gt;35.185.81.236&lt;/b&gt;&lt;/div&gt;" style="text;html=1;align=center;verticalAlign=middle;whiteSpace=wrap;rounded=0;" parent="1" vertex="1">
          <mxGeometry x="660" y="2225.5" width="170" height="40" as="geometry" />
        </mxCell>
        <mxCell id="m8QgqDnbLKsCeQyGqOP--185" value="Serv_cly.py" style="text;html=1;align=center;verticalAlign=middle;whiteSpace=wrap;rounded=0;" parent="1" vertex="1">
          <mxGeometry x="796.8000000000001" y="2420.9300000000003" width="60" height="30" as="geometry" />
        </mxCell>
        <mxCell id="m8QgqDnbLKsCeQyGqOP--186" value="puerto&lt;div&gt;aleatorio&lt;/div&gt;" style="text;html=1;align=center;verticalAlign=middle;whiteSpace=wrap;rounded=0;" parent="1" vertex="1">
          <mxGeometry x="660" y="2370.21" width="60" height="30" as="geometry" />
        </mxCell>
        <mxCell id="m8QgqDnbLKsCeQyGqOP--187" value="8080" style="text;html=1;align=center;verticalAlign=middle;whiteSpace=wrap;rounded=0;" parent="1" vertex="1">
          <mxGeometry x="750" y="2370.2200000000003" width="60" height="30" as="geometry" />
        </mxCell>
        <mxCell id="m8QgqDnbLKsCeQyGqOP--188" value="&lt;div style=&quot;font-size: 15px;&quot;&gt;&lt;b&gt;H6&lt;/b&gt;&lt;/div&gt;" style="text;html=1;align=center;verticalAlign=middle;whiteSpace=wrap;rounded=0;" parent="1" vertex="1">
          <mxGeometry x="60" y="2396.2200000000003" width="70" height="20" as="geometry" />
        </mxCell>
        <mxCell id="m8QgqDnbLKsCeQyGqOP--189" value="&lt;div style=&quot;font-size: 15px;&quot;&gt;&lt;b&gt;B&lt;/b&gt;&lt;/div&gt;" style="text;html=1;align=center;verticalAlign=middle;whiteSpace=wrap;rounded=0;" parent="1" vertex="1">
          <mxGeometry x="654.6" y="2200" width="170" height="40" as="geometry" />
        </mxCell>
        <mxCell id="m8QgqDnbLKsCeQyGqOP--191" value="" style="rounded=0;whiteSpace=wrap;html=1;" parent="1" vertex="1">
          <mxGeometry x="239.6" y="2550" width="120" height="179.5" as="geometry" />
        </mxCell>
        <mxCell id="m8QgqDnbLKsCeQyGqOP--192" value="" style="image;aspect=fixed;perimeter=ellipsePerimeter;html=1;align=center;shadow=0;dashed=0;spacingTop=3;image=img/lib/active_directory/generic_server.svg;" parent="1" vertex="1">
          <mxGeometry x="253.2" y="2630.0000000000005" width="33.6" height="60" as="geometry" />
        </mxCell>
        <mxCell id="m8QgqDnbLKsCeQyGqOP--193" value="" style="image;aspect=fixed;perimeter=ellipsePerimeter;html=1;align=center;shadow=0;dashed=0;spacingTop=3;image=img/lib/active_directory/laptop_client.svg;" parent="1" vertex="1">
          <mxGeometry x="270.0000000000001" y="2560.0000000000005" width="57.05" height="63.39" as="geometry" />
        </mxCell>
        <mxCell id="m8QgqDnbLKsCeQyGqOP--194" value="" style="image;sketch=0;aspect=fixed;html=1;points=[];align=center;fontSize=12;image=img/lib/mscae/Docker.svg;" parent="1" vertex="1">
          <mxGeometry x="219.99999999999997" y="2709.5" width="50" height="41" as="geometry" />
        </mxCell>
        <mxCell id="m8QgqDnbLKsCeQyGqOP--195" value="" style="whiteSpace=wrap;html=1;shape=mxgraph.basic.cloud_rect" parent="1" vertex="1">
          <mxGeometry x="340" y="2649.9900000000002" width="40" height="19.29" as="geometry" />
        </mxCell>
        <mxCell id="m8QgqDnbLKsCeQyGqOP--196" value="&lt;div style=&quot;font-size: 15px;&quot;&gt;&lt;b&gt;35.196.99.208&lt;/b&gt;&lt;/div&gt;" style="text;html=1;align=center;verticalAlign=middle;whiteSpace=wrap;rounded=0;" parent="1" vertex="1">
          <mxGeometry x="209.99999999999997" y="2225.5" width="170" height="40" as="geometry" />
        </mxCell>
        <mxCell id="m8QgqDnbLKsCeQyGqOP--197" value="Serv_cly.py" style="text;html=1;align=center;verticalAlign=middle;whiteSpace=wrap;rounded=0;" parent="1" vertex="1">
          <mxGeometry x="250.00000000000006" y="2695.7100000000005" width="60" height="30" as="geometry" />
        </mxCell>
        <mxCell id="m8QgqDnbLKsCeQyGqOP--198" value="8080" style="text;html=1;align=center;verticalAlign=middle;whiteSpace=wrap;rounded=0;" parent="1" vertex="1">
          <mxGeometry x="286.79999999999995" y="2644.6300000000006" width="60" height="30" as="geometry" />
        </mxCell>
        <mxCell id="m8QgqDnbLKsCeQyGqOP--199" value="puerto&lt;div&gt;aleatorio&lt;/div&gt;" style="text;html=1;align=center;verticalAlign=middle;whiteSpace=wrap;rounded=0;" parent="1" vertex="1">
          <mxGeometry x="379.99999999999994" y="2645.0000000000005" width="60" height="30" as="geometry" />
        </mxCell>
        <mxCell id="m8QgqDnbLKsCeQyGqOP--201" value="&lt;div style=&quot;font-size: 15px;&quot;&gt;&lt;b&gt;A&lt;/b&gt;&lt;/div&gt;" style="text;html=1;align=center;verticalAlign=middle;whiteSpace=wrap;rounded=0;" parent="1" vertex="1">
          <mxGeometry x="204.6" y="2200" width="170" height="40" as="geometry" />
        </mxCell>
        <mxCell id="m8QgqDnbLKsCeQyGqOP--213" value="" style="rounded=0;whiteSpace=wrap;html=1;" parent="1" vertex="1">
          <mxGeometry x="239.6" y="2349.5" width="120" height="100.5" as="geometry" />
        </mxCell>
        <mxCell id="m8QgqDnbLKsCeQyGqOP--214" value="" style="image;aspect=fixed;perimeter=ellipsePerimeter;html=1;align=center;shadow=0;dashed=0;spacingTop=3;image=img/lib/active_directory/generic_server.svg;" parent="1" vertex="1">
          <mxGeometry x="253.2" y="2355.2200000000003" width="33.6" height="60" as="geometry" />
        </mxCell>
        <mxCell id="m8QgqDnbLKsCeQyGqOP--216" value="" style="image;sketch=0;aspect=fixed;html=1;points=[];align=center;fontSize=12;image=img/lib/mscae/Docker.svg;" parent="1" vertex="1">
          <mxGeometry x="221.64999999999998" y="2440" width="50" height="41" as="geometry" />
        </mxCell>
        <mxCell id="m8QgqDnbLKsCeQyGqOP--217" value="" style="whiteSpace=wrap;html=1;shape=mxgraph.basic.cloud_rect" parent="1" vertex="1">
          <mxGeometry x="340" y="2375.21" width="40" height="19.29" as="geometry" />
        </mxCell>
        <mxCell id="m8QgqDnbLKsCeQyGqOP--218" value="RegistroContactos.py&lt;div&gt;&lt;div&gt;&lt;br&gt;&lt;/div&gt;&lt;/div&gt;" style="text;html=1;align=center;verticalAlign=middle;whiteSpace=wrap;rounded=0;" parent="1" vertex="1">
          <mxGeometry x="236.8" y="2420.93" width="130" height="30" as="geometry" />
        </mxCell>
        <mxCell id="m8QgqDnbLKsCeQyGqOP--219" value="8080" style="text;html=1;align=center;verticalAlign=middle;whiteSpace=wrap;rounded=0;" parent="1" vertex="1">
          <mxGeometry x="286.79999999999995" y="2369.8500000000004" width="60" height="30" as="geometry" />
        </mxCell>
        <mxCell id="m8QgqDnbLKsCeQyGqOP--220" value="8086" style="text;html=1;align=center;verticalAlign=middle;whiteSpace=wrap;rounded=0;" parent="1" vertex="1">
          <mxGeometry x="366.79999999999995" y="2369.86" width="60" height="30" as="geometry" />
        </mxCell>
        <mxCell id="m8QgqDnbLKsCeQyGqOP--221" value="" style="image;aspect=fixed;perimeter=ellipsePerimeter;html=1;align=center;shadow=0;dashed=0;spacingTop=3;image=img/lib/active_directory/list.svg;" parent="1" vertex="1">
          <mxGeometry x="300" y="2391.22" width="21" height="30" as="geometry" />
        </mxCell>
        <mxCell id="m8QgqDnbLKsCeQyGqOP--222" value="" style="endArrow=classic;html=1;rounded=0;entryX=1;entryY=0.5;entryDx=0;entryDy=0;exitX=0;exitY=0.25;exitDx=0;exitDy=0;strokeColor=#3333FF;" parent="1" source="m8QgqDnbLKsCeQyGqOP--181" target="m8QgqDnbLKsCeQyGqOP--220" edge="1">
          <mxGeometry width="50" height="50" relative="1" as="geometry">
            <mxPoint x="330" y="2550" as="sourcePoint" />
            <mxPoint x="380" y="2500" as="targetPoint" />
          </mxGeometry>
        </mxCell>
        <mxCell id="m8QgqDnbLKsCeQyGqOP--223" value="" style="endArrow=none;html=1;rounded=0;entryX=1;entryY=0.5;entryDx=0;entryDy=0;exitX=0;exitY=0.25;exitDx=0;exitDy=0;startArrow=classic;startFill=1;endFill=0;strokeColor=#3333FF;" parent="1" edge="1">
          <mxGeometry width="50" height="50" relative="1" as="geometry">
            <mxPoint x="764.6" y="2478.5" as="sourcePoint" />
            <mxPoint x="418.6" y="2394.5" as="targetPoint" />
          </mxGeometry>
        </mxCell>
        <mxCell id="m8QgqDnbLKsCeQyGqOP--224" value="Respuesta: Contactos [&quot;35.196.99.208&quot;: &quot;puerto&quot;]" style="text;html=1;align=center;verticalAlign=middle;whiteSpace=wrap;rounded=0;rotation=15;" parent="1" vertex="1">
          <mxGeometry x="480" y="2440" width="185.4" height="30" as="geometry" />
        </mxCell>
        <mxCell id="m8QgqDnbLKsCeQyGqOP--226" value="" style="endArrow=classic;html=1;rounded=0;entryX=0.386;entryY=0.969;entryDx=0;entryDy=0;entryPerimeter=0;exitX=0.403;exitY=0;exitDx=0;exitDy=0;exitPerimeter=0;strokeColor=#3333FF;" parent="1" source="m8QgqDnbLKsCeQyGqOP--191" target="m8QgqDnbLKsCeQyGqOP--218" edge="1">
          <mxGeometry width="50" height="50" relative="1" as="geometry">
            <mxPoint x="330" y="2550" as="sourcePoint" />
            <mxPoint x="380" y="2500" as="targetPoint" />
          </mxGeometry>
        </mxCell>
        <mxCell id="m8QgqDnbLKsCeQyGqOP--227" value="" style="endArrow=none;html=1;rounded=0;entryX=0.386;entryY=0.969;entryDx=0;entryDy=0;entryPerimeter=0;exitX=0.403;exitY=0;exitDx=0;exitDy=0;exitPerimeter=0;startArrow=classic;startFill=1;endFill=0;strokeColor=#3333FF;" parent="1" edge="1">
          <mxGeometry width="50" height="50" relative="1" as="geometry">
            <mxPoint x="311" y="2550.93" as="sourcePoint" />
            <mxPoint x="310" y="2450.93" as="targetPoint" />
          </mxGeometry>
        </mxCell>
        <mxCell id="m8QgqDnbLKsCeQyGqOP--228" value="Contactos []" style="text;html=1;align=center;verticalAlign=middle;whiteSpace=wrap;rounded=0;rotation=-90;fontSize=13;" parent="1" vertex="1">
          <mxGeometry x="287.19" y="2492.61" width="93.26" height="14.32" as="geometry" />
        </mxCell>
        <mxCell id="m8QgqDnbLKsCeQyGqOP--230" value="" style="endArrow=classic;html=1;rounded=0;strokeColor=#3333FF;" parent="1" edge="1">
          <mxGeometry width="50" height="50" relative="1" as="geometry">
            <mxPoint x="80" y="2480" as="sourcePoint" />
            <mxPoint x="150" y="2480" as="targetPoint" />
          </mxGeometry>
        </mxCell>
        <mxCell id="m8QgqDnbLKsCeQyGqOP--231" value="Conexion Cliente con Registro de contactos" style="text;html=1;align=center;verticalAlign=middle;whiteSpace=wrap;rounded=0;" parent="1" vertex="1">
          <mxGeometry x="80" y="2500" width="70" height="30" as="geometry" />
        </mxCell>
        <mxCell id="m8QgqDnbLKsCeQyGqOP--233" value="" style="endArrow=none;html=1;rounded=0;exitX=1;exitY=0.5;exitDx=0;exitDy=0;startArrow=classic;startFill=1;endFill=0;" parent="1" source="m8QgqDnbLKsCeQyGqOP--199" edge="1">
          <mxGeometry width="50" height="50" relative="1" as="geometry">
            <mxPoint x="330" y="2550" as="sourcePoint" />
            <mxPoint x="786" y="2511" as="targetPoint" />
          </mxGeometry>
        </mxCell>
        <mxCell id="m8QgqDnbLKsCeQyGqOP--235" value="" style="endArrow=classic;html=1;rounded=0;exitX=1;exitY=0.5;exitDx=0;exitDy=0;startArrow=none;startFill=0;endFill=1;" parent="1" edge="1">
          <mxGeometry width="50" height="50" relative="1" as="geometry">
            <mxPoint x="450" y="2670" as="sourcePoint" />
            <mxPoint x="796" y="2521" as="targetPoint" />
          </mxGeometry>
        </mxCell>
        <mxCell id="m8QgqDnbLKsCeQyGqOP--237" value="" style="endArrow=classic;html=1;rounded=0;strokeColor=#000000;" parent="1" edge="1">
          <mxGeometry width="50" height="50" relative="1" as="geometry">
            <mxPoint x="90" y="2560" as="sourcePoint" />
            <mxPoint x="150" y="2560" as="targetPoint" />
          </mxGeometry>
        </mxCell>
        <mxCell id="m8QgqDnbLKsCeQyGqOP--238" value="Cliente a servidor proporcionado por la lista de contactos" style="text;html=1;align=center;verticalAlign=middle;whiteSpace=wrap;rounded=0;" parent="1" vertex="1">
          <mxGeometry x="80" y="2590" width="70" height="30" as="geometry" />
        </mxCell>
        <mxCell id="m8QgqDnbLKsCeQyGqOP--239" value="1°" style="text;html=1;align=center;verticalAlign=middle;whiteSpace=wrap;rounded=0;" parent="1" vertex="1">
          <mxGeometry x="236.8" y="2492.61" width="60" height="30" as="geometry" />
        </mxCell>
        <mxCell id="m8QgqDnbLKsCeQyGqOP--240" value="2°" style="text;html=1;align=center;verticalAlign=middle;whiteSpace=wrap;rounded=0;" parent="1" vertex="1">
          <mxGeometry x="510" y="2345.21" width="60" height="30" as="geometry" />
        </mxCell>
        <mxCell id="m8QgqDnbLKsCeQyGqOP--241" value="3°" style="text;html=1;align=center;verticalAlign=middle;whiteSpace=wrap;rounded=0;" parent="1" vertex="1">
          <mxGeometry x="500" y="2570" width="60" height="30" as="geometry" />
        </mxCell>
        <mxCell id="m8QgqDnbLKsCeQyGqOP--242" value="Respuesta: {mensaje&quot;: Hola, un gusto!}" style="text;html=1;align=center;verticalAlign=middle;whiteSpace=wrap;rounded=0;rotation=-25;" parent="1" vertex="1">
          <mxGeometry x="537.3" y="2599.9999999999995" width="185.4" height="30" as="geometry" />
        </mxCell>
        <mxCell id="m8QgqDnbLKsCeQyGqOP--243" value="Peticion: {&quot;mensaje&quot;: Hola! soy un nodo C}" style="text;html=1;align=center;verticalAlign=middle;whiteSpace=wrap;rounded=0;rotation=-25;" parent="1" vertex="1">
          <mxGeometry x="470" y="2563.39" width="243.98" height="30" as="geometry" />
        </mxCell>
        <mxCell id="m8QgqDnbLKsCeQyGqOP--244" value="Peticion a 35.196.99.208:8086: Lista de contactos" style="text;html=1;align=center;verticalAlign=middle;whiteSpace=wrap;rounded=0;rotation=15;" parent="1" vertex="1">
          <mxGeometry x="497.3" y="2391.22" width="185.4" height="30" as="geometry" />
        </mxCell>
        <mxCell id="m8QgqDnbLKsCeQyGqOP--294" value="&lt;div style=&quot;font-size: 15px;&quot;&gt;&lt;b&gt;GCLOUD&lt;/b&gt;&lt;/div&gt;" style="text;html=1;align=center;verticalAlign=middle;whiteSpace=wrap;rounded=0;" parent="1" vertex="1">
          <mxGeometry x="214.6" y="2830" width="170" height="20" as="geometry" />
        </mxCell>
        <mxCell id="m8QgqDnbLKsCeQyGqOP--295" value="&lt;div style=&quot;font-size: 15px;&quot;&gt;&lt;b&gt;GCLOUD&lt;/b&gt;&lt;/div&gt;" style="text;html=1;align=center;verticalAlign=middle;whiteSpace=wrap;rounded=0;" parent="1" vertex="1">
          <mxGeometry x="729.2" y="2600" width="170" height="20" as="geometry" />
        </mxCell>
        <mxCell id="m8QgqDnbLKsCeQyGqOP--347" value="(Guarda en registro)" style="text;html=1;align=center;verticalAlign=middle;whiteSpace=wrap;rounded=0;" parent="1" vertex="1">
          <mxGeometry x="384.6" y="2319.5" width="110" height="30" as="geometry" />
        </mxCell>
        <mxCell id="m8QgqDnbLKsCeQyGqOP--348" value="(Guarda en registro)" style="text;html=1;align=center;verticalAlign=middle;whiteSpace=wrap;rounded=0;" parent="1" vertex="1">
          <mxGeometry x="340" y="2450.93" width="85.4" height="10" as="geometry" />
        </mxCell>
        <mxCell id="m8QgqDnbLKsCeQyGqOP--349" value="" style="ellipse;shape=cloud;whiteSpace=wrap;html=1;" parent="1" vertex="1">
          <mxGeometry x="680" y="3039.63" width="270.4" height="339.25" as="geometry" />
        </mxCell>
        <mxCell id="m8QgqDnbLKsCeQyGqOP--350" value="" style="ellipse;shape=cloud;whiteSpace=wrap;html=1;" parent="1" vertex="1">
          <mxGeometry x="150" y="2930" width="310" height="690" as="geometry" />
        </mxCell>
        <mxCell id="m8QgqDnbLKsCeQyGqOP--351" value="" style="rounded=0;whiteSpace=wrap;html=1;" parent="1" vertex="1">
          <mxGeometry x="749.6" y="3119.5" width="120" height="179.5" as="geometry" />
        </mxCell>
        <mxCell id="m8QgqDnbLKsCeQyGqOP--352" value="" style="image;aspect=fixed;perimeter=ellipsePerimeter;html=1;align=center;shadow=0;dashed=0;spacingTop=3;image=img/lib/active_directory/generic_server.svg;" parent="1" vertex="1">
          <mxGeometry x="820" y="3125.2200000000003" width="33.6" height="60" as="geometry" />
        </mxCell>
        <mxCell id="m8QgqDnbLKsCeQyGqOP--353" value="" style="image;aspect=fixed;perimeter=ellipsePerimeter;html=1;align=center;shadow=0;dashed=0;spacingTop=3;image=img/lib/active_directory/laptop_client.svg;" parent="1" vertex="1">
          <mxGeometry x="780.0000000000001" y="3220.9300000000003" width="57.05" height="63.39" as="geometry" />
        </mxCell>
        <mxCell id="m8QgqDnbLKsCeQyGqOP--354" value="" style="image;sketch=0;aspect=fixed;html=1;points=[];align=center;fontSize=12;image=img/lib/mscae/Docker.svg;" parent="1" vertex="1">
          <mxGeometry x="840" y="3279" width="50" height="41" as="geometry" />
        </mxCell>
        <mxCell id="m8QgqDnbLKsCeQyGqOP--355" value="" style="whiteSpace=wrap;html=1;shape=mxgraph.basic.cloud_rect" parent="1" vertex="1">
          <mxGeometry x="730" y="3145.21" width="40" height="19.29" as="geometry" />
        </mxCell>
        <mxCell id="m8QgqDnbLKsCeQyGqOP--356" value="&lt;div style=&quot;font-size: 15px;&quot;&gt;&lt;b&gt;35.185.81.236&lt;/b&gt;&lt;/div&gt;" style="text;html=1;align=center;verticalAlign=middle;whiteSpace=wrap;rounded=0;" parent="1" vertex="1">
          <mxGeometry x="670" y="2995.5" width="170" height="40" as="geometry" />
        </mxCell>
        <mxCell id="m8QgqDnbLKsCeQyGqOP--357" value="Serv_cly.py" style="text;html=1;align=center;verticalAlign=middle;whiteSpace=wrap;rounded=0;" parent="1" vertex="1">
          <mxGeometry x="806.8000000000001" y="3190.9300000000003" width="60" height="30" as="geometry" />
        </mxCell>
        <mxCell id="m8QgqDnbLKsCeQyGqOP--358" value="puerto&lt;div&gt;aleatorio&lt;/div&gt;" style="text;html=1;align=center;verticalAlign=middle;whiteSpace=wrap;rounded=0;" parent="1" vertex="1">
          <mxGeometry x="670" y="3140.21" width="60" height="30" as="geometry" />
        </mxCell>
        <mxCell id="m8QgqDnbLKsCeQyGqOP--359" value="8080" style="text;html=1;align=center;verticalAlign=middle;whiteSpace=wrap;rounded=0;" parent="1" vertex="1">
          <mxGeometry x="760" y="3140.2200000000003" width="60" height="30" as="geometry" />
        </mxCell>
        <mxCell id="m8QgqDnbLKsCeQyGqOP--360" value="&lt;div style=&quot;font-size: 15px;&quot;&gt;&lt;b&gt;H7&lt;/b&gt;&lt;/div&gt;" style="text;html=1;align=center;verticalAlign=middle;whiteSpace=wrap;rounded=0;" parent="1" vertex="1">
          <mxGeometry x="70" y="3166.2200000000003" width="70" height="20" as="geometry" />
        </mxCell>
        <mxCell id="m8QgqDnbLKsCeQyGqOP--361" value="&lt;div style=&quot;font-size: 15px;&quot;&gt;&lt;b&gt;B&lt;/b&gt;&lt;/div&gt;" style="text;html=1;align=center;verticalAlign=middle;whiteSpace=wrap;rounded=0;" parent="1" vertex="1">
          <mxGeometry x="664.6" y="2970" width="170" height="40" as="geometry" />
        </mxCell>
        <mxCell id="m8QgqDnbLKsCeQyGqOP--362" value="" style="rounded=0;whiteSpace=wrap;html=1;" parent="1" vertex="1">
          <mxGeometry x="249.6" y="3320" width="120" height="179.5" as="geometry" />
        </mxCell>
        <mxCell id="m8QgqDnbLKsCeQyGqOP--363" value="" style="image;aspect=fixed;perimeter=ellipsePerimeter;html=1;align=center;shadow=0;dashed=0;spacingTop=3;image=img/lib/active_directory/generic_server.svg;" parent="1" vertex="1">
          <mxGeometry x="263.2" y="3400.0000000000005" width="33.6" height="60" as="geometry" />
        </mxCell>
        <mxCell id="m8QgqDnbLKsCeQyGqOP--364" value="" style="image;aspect=fixed;perimeter=ellipsePerimeter;html=1;align=center;shadow=0;dashed=0;spacingTop=3;image=img/lib/active_directory/laptop_client.svg;" parent="1" vertex="1">
          <mxGeometry x="280.0000000000001" y="3330.0000000000005" width="57.05" height="63.39" as="geometry" />
        </mxCell>
        <mxCell id="m8QgqDnbLKsCeQyGqOP--365" value="" style="image;sketch=0;aspect=fixed;html=1;points=[];align=center;fontSize=12;image=img/lib/mscae/Docker.svg;" parent="1" vertex="1">
          <mxGeometry x="229.99999999999997" y="3479.5" width="50" height="41" as="geometry" />
        </mxCell>
        <mxCell id="m8QgqDnbLKsCeQyGqOP--366" value="" style="whiteSpace=wrap;html=1;shape=mxgraph.basic.cloud_rect" parent="1" vertex="1">
          <mxGeometry x="350" y="3419.9900000000002" width="40" height="19.29" as="geometry" />
        </mxCell>
        <mxCell id="m8QgqDnbLKsCeQyGqOP--367" value="&lt;div style=&quot;font-size: 15px;&quot;&gt;&lt;b&gt;35.196.99.208&lt;/b&gt;&lt;/div&gt;" style="text;html=1;align=center;verticalAlign=middle;whiteSpace=wrap;rounded=0;" parent="1" vertex="1">
          <mxGeometry x="219.99999999999997" y="2995.5" width="170" height="40" as="geometry" />
        </mxCell>
        <mxCell id="m8QgqDnbLKsCeQyGqOP--368" value="Serv_cly.py" style="text;html=1;align=center;verticalAlign=middle;whiteSpace=wrap;rounded=0;" parent="1" vertex="1">
          <mxGeometry x="260.00000000000006" y="3465.7100000000005" width="60" height="30" as="geometry" />
        </mxCell>
        <mxCell id="m8QgqDnbLKsCeQyGqOP--369" value="8080" style="text;html=1;align=center;verticalAlign=middle;whiteSpace=wrap;rounded=0;" parent="1" vertex="1">
          <mxGeometry x="296.79999999999995" y="3414.6300000000006" width="60" height="30" as="geometry" />
        </mxCell>
        <mxCell id="m8QgqDnbLKsCeQyGqOP--370" value="puerto&lt;div&gt;aleatorio&lt;/div&gt;" style="text;html=1;align=center;verticalAlign=middle;whiteSpace=wrap;rounded=0;" parent="1" vertex="1">
          <mxGeometry x="389.99999999999994" y="3415.0000000000005" width="60" height="30" as="geometry" />
        </mxCell>
        <mxCell id="m8QgqDnbLKsCeQyGqOP--371" value="&lt;div style=&quot;font-size: 15px;&quot;&gt;&lt;b&gt;A&lt;/b&gt;&lt;/div&gt;" style="text;html=1;align=center;verticalAlign=middle;whiteSpace=wrap;rounded=0;" parent="1" vertex="1">
          <mxGeometry x="214.6" y="2970" width="170" height="40" as="geometry" />
        </mxCell>
        <mxCell id="m8QgqDnbLKsCeQyGqOP--372" value="" style="rounded=0;whiteSpace=wrap;html=1;" parent="1" vertex="1">
          <mxGeometry x="249.6" y="3060" width="120" height="160" as="geometry" />
        </mxCell>
        <mxCell id="m8QgqDnbLKsCeQyGqOP--405" style="edgeStyle=orthogonalEdgeStyle;rounded=0;orthogonalLoop=1;jettySize=auto;html=1;" parent="1" source="m8QgqDnbLKsCeQyGqOP--373" target="m8QgqDnbLKsCeQyGqOP--403" edge="1">
          <mxGeometry relative="1" as="geometry" />
        </mxCell>
        <mxCell id="m8QgqDnbLKsCeQyGqOP--373" value="" style="image;aspect=fixed;perimeter=ellipsePerimeter;html=1;align=center;shadow=0;dashed=0;spacingTop=3;image=img/lib/active_directory/generic_server.svg;" parent="1" vertex="1">
          <mxGeometry x="291.73" y="3074.5000000000005" width="33.6" height="60" as="geometry" />
        </mxCell>
        <mxCell id="m8QgqDnbLKsCeQyGqOP--374" value="" style="image;sketch=0;aspect=fixed;html=1;points=[];align=center;fontSize=12;image=img/lib/mscae/Docker.svg;" parent="1" vertex="1">
          <mxGeometry x="231.64999999999998" y="3210" width="50" height="41" as="geometry" />
        </mxCell>
        <mxCell id="m8QgqDnbLKsCeQyGqOP--375" value="" style="whiteSpace=wrap;html=1;shape=mxgraph.basic.cloud_rect" parent="1" vertex="1">
          <mxGeometry x="350" y="3145.21" width="40" height="19.29" as="geometry" />
        </mxCell>
        <mxCell id="m8QgqDnbLKsCeQyGqOP--376" value="RegistroContactos.py&lt;div&gt;&lt;div&gt;&lt;br&gt;&lt;/div&gt;&lt;/div&gt;" style="text;html=1;align=center;verticalAlign=middle;whiteSpace=wrap;rounded=0;" parent="1" vertex="1">
          <mxGeometry x="246.8" y="3190.93" width="130" height="30" as="geometry" />
        </mxCell>
        <mxCell id="m8QgqDnbLKsCeQyGqOP--377" value="8080" style="text;html=1;align=center;verticalAlign=middle;whiteSpace=wrap;rounded=0;" parent="1" vertex="1">
          <mxGeometry x="296.79999999999995" y="3139.8500000000004" width="60" height="30" as="geometry" />
        </mxCell>
        <mxCell id="m8QgqDnbLKsCeQyGqOP--378" value="8087" style="text;html=1;align=center;verticalAlign=middle;whiteSpace=wrap;rounded=0;" parent="1" vertex="1">
          <mxGeometry x="376.79999999999995" y="3139.86" width="60" height="30" as="geometry" />
        </mxCell>
        <mxCell id="m8QgqDnbLKsCeQyGqOP--379" value="" style="image;aspect=fixed;perimeter=ellipsePerimeter;html=1;align=center;shadow=0;dashed=0;spacingTop=3;image=img/lib/active_directory/list.svg;" parent="1" vertex="1">
          <mxGeometry x="310" y="3161.22" width="21" height="30" as="geometry" />
        </mxCell>
        <mxCell id="m8QgqDnbLKsCeQyGqOP--380" value="" style="endArrow=classic;html=1;rounded=0;entryX=1;entryY=0.5;entryDx=0;entryDy=0;exitX=0;exitY=0.25;exitDx=0;exitDy=0;strokeColor=#3333FF;" parent="1" source="m8QgqDnbLKsCeQyGqOP--353" target="m8QgqDnbLKsCeQyGqOP--378" edge="1">
          <mxGeometry width="50" height="50" relative="1" as="geometry">
            <mxPoint x="340" y="3320" as="sourcePoint" />
            <mxPoint x="390" y="3270" as="targetPoint" />
          </mxGeometry>
        </mxCell>
        <mxCell id="m8QgqDnbLKsCeQyGqOP--381" value="" style="endArrow=none;html=1;rounded=0;entryX=1;entryY=0.5;entryDx=0;entryDy=0;exitX=0;exitY=0.25;exitDx=0;exitDy=0;startArrow=classic;startFill=1;endFill=0;strokeColor=#3333FF;" parent="1" edge="1">
          <mxGeometry width="50" height="50" relative="1" as="geometry">
            <mxPoint x="774.6" y="3248.5" as="sourcePoint" />
            <mxPoint x="428.6" y="3164.5" as="targetPoint" />
          </mxGeometry>
        </mxCell>
        <mxCell id="m8QgqDnbLKsCeQyGqOP--382" value="Respuesta: Contactos actuales [&quot;35.196.99.208&quot;: &quot;puerto&quot;]" style="text;html=1;align=center;verticalAlign=middle;whiteSpace=wrap;rounded=0;rotation=15;" parent="1" vertex="1">
          <mxGeometry x="490" y="3210" width="185.4" height="30" as="geometry" />
        </mxCell>
        <mxCell id="m8QgqDnbLKsCeQyGqOP--383" value="" style="endArrow=classic;html=1;rounded=0;entryX=0.386;entryY=0.969;entryDx=0;entryDy=0;entryPerimeter=0;exitX=0.403;exitY=0;exitDx=0;exitDy=0;exitPerimeter=0;strokeColor=#3333FF;" parent="1" source="m8QgqDnbLKsCeQyGqOP--362" target="m8QgqDnbLKsCeQyGqOP--376" edge="1">
          <mxGeometry width="50" height="50" relative="1" as="geometry">
            <mxPoint x="340" y="3320" as="sourcePoint" />
            <mxPoint x="390" y="3270" as="targetPoint" />
          </mxGeometry>
        </mxCell>
        <mxCell id="m8QgqDnbLKsCeQyGqOP--384" value="" style="endArrow=none;html=1;rounded=0;entryX=0.386;entryY=0.969;entryDx=0;entryDy=0;entryPerimeter=0;exitX=0.403;exitY=0;exitDx=0;exitDy=0;exitPerimeter=0;startArrow=classic;startFill=1;endFill=0;strokeColor=#3333FF;" parent="1" edge="1">
          <mxGeometry width="50" height="50" relative="1" as="geometry">
            <mxPoint x="321" y="3320.93" as="sourcePoint" />
            <mxPoint x="320" y="3220.93" as="targetPoint" />
          </mxGeometry>
        </mxCell>
        <mxCell id="m8QgqDnbLKsCeQyGqOP--385" value="Contactos acutuales []" style="text;html=1;align=center;verticalAlign=middle;whiteSpace=wrap;rounded=0;rotation=-90;fontSize=13;" parent="1" vertex="1">
          <mxGeometry x="297.19" y="3262.61" width="93.26" height="14.32" as="geometry" />
        </mxCell>
        <mxCell id="m8QgqDnbLKsCeQyGqOP--386" value="" style="endArrow=classic;html=1;rounded=0;strokeColor=#3333FF;" parent="1" edge="1">
          <mxGeometry width="50" height="50" relative="1" as="geometry">
            <mxPoint x="90" y="3250" as="sourcePoint" />
            <mxPoint x="160" y="3250" as="targetPoint" />
          </mxGeometry>
        </mxCell>
        <mxCell id="m8QgqDnbLKsCeQyGqOP--387" value="Conexion Cliente con Registro de contactos" style="text;html=1;align=center;verticalAlign=middle;whiteSpace=wrap;rounded=0;" parent="1" vertex="1">
          <mxGeometry x="90" y="3270" width="70" height="30" as="geometry" />
        </mxCell>
        <mxCell id="m8QgqDnbLKsCeQyGqOP--388" value="" style="endArrow=none;html=1;rounded=0;exitX=1;exitY=0.5;exitDx=0;exitDy=0;startArrow=classic;startFill=1;endFill=0;" parent="1" source="m8QgqDnbLKsCeQyGqOP--370" edge="1">
          <mxGeometry width="50" height="50" relative="1" as="geometry">
            <mxPoint x="340" y="3320" as="sourcePoint" />
            <mxPoint x="796" y="3281" as="targetPoint" />
          </mxGeometry>
        </mxCell>
        <mxCell id="m8QgqDnbLKsCeQyGqOP--389" value="" style="endArrow=classic;html=1;rounded=0;exitX=1;exitY=0.5;exitDx=0;exitDy=0;startArrow=none;startFill=0;endFill=1;" parent="1" edge="1">
          <mxGeometry width="50" height="50" relative="1" as="geometry">
            <mxPoint x="460" y="3440" as="sourcePoint" />
            <mxPoint x="806" y="3291" as="targetPoint" />
          </mxGeometry>
        </mxCell>
        <mxCell id="m8QgqDnbLKsCeQyGqOP--390" value="" style="endArrow=classic;html=1;rounded=0;strokeColor=#000000;" parent="1" edge="1">
          <mxGeometry width="50" height="50" relative="1" as="geometry">
            <mxPoint x="100" y="3330" as="sourcePoint" />
            <mxPoint x="160" y="3330" as="targetPoint" />
          </mxGeometry>
        </mxCell>
        <mxCell id="m8QgqDnbLKsCeQyGqOP--391" value="Cliente a servidor proporcionado por la lista de contactos" style="text;html=1;align=center;verticalAlign=middle;whiteSpace=wrap;rounded=0;" parent="1" vertex="1">
          <mxGeometry x="90" y="3360" width="70" height="30" as="geometry" />
        </mxCell>
        <mxCell id="m8QgqDnbLKsCeQyGqOP--392" value="1°" style="text;html=1;align=center;verticalAlign=middle;whiteSpace=wrap;rounded=0;" parent="1" vertex="1">
          <mxGeometry x="246.8" y="3262.61" width="60" height="30" as="geometry" />
        </mxCell>
        <mxCell id="m8QgqDnbLKsCeQyGqOP--393" value="2°" style="text;html=1;align=center;verticalAlign=middle;whiteSpace=wrap;rounded=0;" parent="1" vertex="1">
          <mxGeometry x="520" y="3115.21" width="60" height="30" as="geometry" />
        </mxCell>
        <mxCell id="m8QgqDnbLKsCeQyGqOP--394" value="3°" style="text;html=1;align=center;verticalAlign=middle;whiteSpace=wrap;rounded=0;" parent="1" vertex="1">
          <mxGeometry x="510" y="3340" width="60" height="30" as="geometry" />
        </mxCell>
        <mxCell id="m8QgqDnbLKsCeQyGqOP--395" value="Respuesta: {mensaje&quot;: Hola, un gusto!}" style="text;html=1;align=center;verticalAlign=middle;whiteSpace=wrap;rounded=0;rotation=-25;" parent="1" vertex="1">
          <mxGeometry x="547.3" y="3369.9999999999995" width="185.4" height="30" as="geometry" />
        </mxCell>
        <mxCell id="m8QgqDnbLKsCeQyGqOP--396" value="Peticion: {&quot;mensaje&quot;: Hola! soy un nodo C}" style="text;html=1;align=center;verticalAlign=middle;whiteSpace=wrap;rounded=0;rotation=-25;" parent="1" vertex="1">
          <mxGeometry x="480" y="3333.39" width="243.98" height="30" as="geometry" />
        </mxCell>
        <mxCell id="m8QgqDnbLKsCeQyGqOP--397" value="Peticion a 35.196.99.208:8087: Lista de contactos" style="text;html=1;align=center;verticalAlign=middle;whiteSpace=wrap;rounded=0;rotation=15;" parent="1" vertex="1">
          <mxGeometry x="507.3" y="3161.22" width="185.4" height="30" as="geometry" />
        </mxCell>
        <mxCell id="m8QgqDnbLKsCeQyGqOP--398" value="&lt;div style=&quot;font-size: 15px;&quot;&gt;&lt;b&gt;GCLOUD&lt;/b&gt;&lt;/div&gt;" style="text;html=1;align=center;verticalAlign=middle;whiteSpace=wrap;rounded=0;" parent="1" vertex="1">
          <mxGeometry x="224.6" y="3600" width="170" height="20" as="geometry" />
        </mxCell>
        <mxCell id="m8QgqDnbLKsCeQyGqOP--399" value="&lt;div style=&quot;font-size: 15px;&quot;&gt;&lt;b&gt;GCLOUD&lt;/b&gt;&lt;/div&gt;" style="text;html=1;align=center;verticalAlign=middle;whiteSpace=wrap;rounded=0;" parent="1" vertex="1">
          <mxGeometry x="739.2" y="3370" width="170" height="20" as="geometry" />
        </mxCell>
        <mxCell id="m8QgqDnbLKsCeQyGqOP--400" value="(Guarda en registro siguientes)" style="text;html=1;align=center;verticalAlign=middle;whiteSpace=wrap;rounded=0;" parent="1" vertex="1">
          <mxGeometry x="394.6" y="3089.5" width="110" height="30" as="geometry" />
        </mxCell>
        <mxCell id="m8QgqDnbLKsCeQyGqOP--401" value="(Guarda en registro siguiente)" style="text;html=1;align=center;verticalAlign=middle;whiteSpace=wrap;rounded=0;" parent="1" vertex="1">
          <mxGeometry x="356.8" y="3220" width="85.4" height="10" as="geometry" />
        </mxCell>
        <mxCell id="m8QgqDnbLKsCeQyGqOP--403" value="&lt;font style=&quot;font-size: 10px;&quot;&gt;Contactos_actuales = []&lt;/font&gt;&lt;div style=&quot;font-size: 10px;&quot;&gt;&lt;font style=&quot;font-size: 10px;&quot;&gt;Contactos_siguiente = []&lt;/font&gt;&lt;/div&gt;&lt;div style=&quot;font-size: 10px;&quot;&gt;&lt;font style=&quot;font-size: 10px;&quot;&gt;&lt;br&gt;&lt;/font&gt;&lt;/div&gt;&lt;div style=&quot;font-size: 10px;&quot;&gt;&lt;font style=&quot;font-size: 10px;&quot;&gt;Pasados 60 segundos:&lt;/font&gt;&lt;/div&gt;&lt;div style=&quot;font-size: 10px;&quot;&gt;Actual = Siguiente&lt;/div&gt;&lt;div style=&quot;font-size: 10px;&quot;&gt;Siguiente = []&lt;/div&gt;" style="text;html=1;align=center;verticalAlign=middle;whiteSpace=wrap;rounded=0;labelBackgroundColor=none;labelBorderColor=default;" parent="1" vertex="1">
          <mxGeometry x="70" y="2950" width="110" height="85" as="geometry" />
        </mxCell>
        <mxCell id="oCYHwPnU6Bp3qWvglqdl-1" value="" style="sketch=0;outlineConnect=0;fontColor=#232F3E;gradientColor=none;fillColor=#7AA116;strokeColor=none;dashed=0;verticalLabelPosition=bottom;verticalAlign=top;align=center;html=1;fontSize=12;fontStyle=0;aspect=fixed;pointerEvents=1;shape=mxgraph.aws4.http_protocol;" vertex="1" parent="1">
          <mxGeometry x="675.4" y="25" width="35" height="35" as="geometry" />
        </mxCell>
        <mxCell id="oCYHwPnU6Bp3qWvglqdl-2" value="" style="whiteSpace=wrap;html=1;shape=mxgraph.basic.cloud_rect" vertex="1" parent="1">
          <mxGeometry x="600" y="34.99999999999999" width="40" height="19.29" as="geometry" />
        </mxCell>
        <mxCell id="oCYHwPnU6Bp3qWvglqdl-3" value="10001" style="text;html=1;align=center;verticalAlign=middle;whiteSpace=wrap;rounded=0;" vertex="1" parent="1">
          <mxGeometry x="550" y="30.000000000000007" width="60" height="30" as="geometry" />
        </mxCell>
        <mxCell id="oCYHwPnU6Bp3qWvglqdl-4" value="10001" style="text;html=1;align=center;verticalAlign=middle;whiteSpace=wrap;rounded=0;" vertex="1" parent="1">
          <mxGeometry x="630" y="30.010000000000012" width="60" height="30" as="geometry" />
        </mxCell>
        <mxCell id="oCYHwPnU6Bp3qWvglqdl-5" value="Status" style="text;html=1;align=center;verticalAlign=middle;whiteSpace=wrap;rounded=0;fontSize=9;" vertex="1" parent="1">
          <mxGeometry x="656.99" y="28.58" width="76.02" height="25.71" as="geometry" />
        </mxCell>
        <mxCell id="oCYHwPnU6Bp3qWvglqdl-6" value="" style="ellipse;shape=cloud;whiteSpace=wrap;html=1;" vertex="1" parent="1">
          <mxGeometry x="510" y="320" width="350" height="250" as="geometry" />
        </mxCell>
        <mxCell id="oCYHwPnU6Bp3qWvglqdl-7" value="" style="rounded=0;whiteSpace=wrap;html=1;" vertex="1" parent="1">
          <mxGeometry x="629.6" y="370" width="120" height="125" as="geometry" />
        </mxCell>
        <mxCell id="oCYHwPnU6Bp3qWvglqdl-8" value="" style="image;aspect=fixed;perimeter=ellipsePerimeter;html=1;align=center;shadow=0;dashed=0;spacingTop=3;image=img/lib/active_directory/generic_server.svg;" vertex="1" parent="1">
          <mxGeometry x="700" y="410" width="39.2" height="70" as="geometry" />
        </mxCell>
        <mxCell id="oCYHwPnU6Bp3qWvglqdl-9" value="" style="image;sketch=0;aspect=fixed;html=1;points=[];align=center;fontSize=12;image=img/lib/mscae/Docker.svg;" vertex="1" parent="1">
          <mxGeometry x="610" y="474.5" width="50" height="41" as="geometry" />
        </mxCell>
        <mxCell id="oCYHwPnU6Bp3qWvglqdl-10" value="" style="whiteSpace=wrap;html=1;shape=mxgraph.basic.cloud_rect" vertex="1" parent="1">
          <mxGeometry x="610" y="420.71" width="40" height="19.29" as="geometry" />
        </mxCell>
        <mxCell id="oCYHwPnU6Bp3qWvglqdl-11" value="Servidor.py" style="text;html=1;align=center;verticalAlign=middle;whiteSpace=wrap;rounded=0;" vertex="1" parent="1">
          <mxGeometry x="689.6" y="471.43" width="60" height="30" as="geometry" />
        </mxCell>
        <mxCell id="oCYHwPnU6Bp3qWvglqdl-12" value="8082" style="text;html=1;align=center;verticalAlign=middle;whiteSpace=wrap;rounded=0;" vertex="1" parent="1">
          <mxGeometry x="560" y="415.71000000000004" width="60" height="30" as="geometry" />
        </mxCell>
        <mxCell id="oCYHwPnU6Bp3qWvglqdl-13" value="8082" style="text;html=1;align=center;verticalAlign=middle;whiteSpace=wrap;rounded=0;" vertex="1" parent="1">
          <mxGeometry x="640" y="415.72" width="60" height="30" as="geometry" />
        </mxCell>
        <mxCell id="oCYHwPnU6Bp3qWvglqdl-14" value="&lt;div style=&quot;font-size: 15px;&quot;&gt;&lt;b&gt;GCLOUD&lt;/b&gt;&lt;/div&gt;" style="text;html=1;align=center;verticalAlign=middle;whiteSpace=wrap;rounded=0;" vertex="1" parent="1">
          <mxGeometry x="610" y="560" width="170" height="20" as="geometry" />
        </mxCell>
        <mxCell id="oCYHwPnU6Bp3qWvglqdl-15" value="" style="sketch=0;outlineConnect=0;fontColor=#232F3E;gradientColor=none;fillColor=#7AA116;strokeColor=none;dashed=0;verticalLabelPosition=bottom;verticalAlign=top;align=center;html=1;fontSize=12;fontStyle=0;aspect=fixed;pointerEvents=1;shape=mxgraph.aws4.http_protocol;" vertex="1" parent="1">
          <mxGeometry x="685.4" y="375" width="35" height="35" as="geometry" />
        </mxCell>
        <mxCell id="oCYHwPnU6Bp3qWvglqdl-16" value="" style="whiteSpace=wrap;html=1;shape=mxgraph.basic.cloud_rect" vertex="1" parent="1">
          <mxGeometry x="610" y="385" width="40" height="19.29" as="geometry" />
        </mxCell>
        <mxCell id="oCYHwPnU6Bp3qWvglqdl-17" value="10002" style="text;html=1;align=center;verticalAlign=middle;whiteSpace=wrap;rounded=0;" vertex="1" parent="1">
          <mxGeometry x="560" y="380" width="60" height="30" as="geometry" />
        </mxCell>
        <mxCell id="oCYHwPnU6Bp3qWvglqdl-18" value="10002" style="text;html=1;align=center;verticalAlign=middle;whiteSpace=wrap;rounded=0;" vertex="1" parent="1">
          <mxGeometry x="640" y="380.01" width="60" height="30" as="geometry" />
        </mxCell>
        <mxCell id="oCYHwPnU6Bp3qWvglqdl-19" value="Status" style="text;html=1;align=center;verticalAlign=middle;whiteSpace=wrap;rounded=0;fontSize=9;" vertex="1" parent="1">
          <mxGeometry x="666.99" y="378.58" width="76.02" height="25.71" as="geometry" />
        </mxCell>
      </root>
    </mxGraphModel>
  </diagram>
</mxfile>
